<svg class="animated" id="freepik_stories-woman-captain" xmlns="http://www.w3.org/2000/svg" viewBox="0 0 500 500" version="1.1" xmlns:xlink="http://www.w3.org/1999/xlink" xmlns:svgjs="http://svgjs.com/svgjs"><style>svg#freepik_stories-woman-captain:not(.animated) .animable {opacity: 0;}svg#freepik_stories-woman-captain.animated #freepik--background-complete--inject-116 {animation: 1.5s Infinite  linear floating;animation-delay: 0s;}svg#freepik_stories-woman-captain.animated #freepik--Water--inject-116 {animation: 1.5s Infinite  linear floating;animation-delay: 0s;}svg#freepik_stories-woman-captain.animated #freepik--Sun--inject-116 {animation: 1.5s Infinite  linear spin;animation-delay: 0s;}            @keyframes floating {                0% {                    opacity: 1;                    transform: translateY(0px);                }                50% {                    transform: translateY(-10px);                }                100% {                    opacity: 1;                    transform: translateY(0px);                }            }                 @keyframes spin {             from {                 transform: rotate(0);               }               to {                 transform: rotate(360deg);               }         }     </style><g id="freepik--background-complete--inject-116" class="animable" style="transform-origin: 247.82px 232.929px;"><polygon points="28.66 373.73 25.52 393.47 47.96 406.98 97.29 406.98 108.72 377.37 104.05 373.73 28.66 373.73" style="fill: rgb(245, 245, 245); fill-rule: evenodd; transform-origin: 67.12px 390.355px;" id="elwxn9aqcpvna" class="animable"></polygon><path d="M103.82,405.42c1.56-2.08,11.65-26,11.65-26l22.33,3.11,15.26,17.14-14.75,22.86-23.5-2.06Z" style="fill: rgb(245, 245, 245); fill-rule: evenodd; transform-origin: 128.44px 400.975px;" id="elolahi5l7nrc" class="animable"></path><polygon points="144.66 372.68 139.83 379.45 156.96 394.1 176.1 390.35 194.15 372.68 144.66 372.68" style="fill: rgb(245, 245, 245); fill-rule: evenodd; transform-origin: 166.99px 383.39px;" id="elxajzhrkwxwf" class="animable"></polygon><path d="M161.73,401l15.58-4.74,16.84,9.39,13,14.92L198,435.73s-30.05,5.46-29.92,5S145,422.56,145,422.56Z" style="fill: rgb(245, 245, 245); fill-rule: evenodd; transform-origin: 176.075px 418.509px;" id="ellmbwud99axo" class="animable"></path><path d="M197.52,394.09c.72.73,14.68,12.89,14.68,12.89l25.6-6.45L236,379.45,223,373.73l-22.62,1.11Z" style="fill: rgb(245, 245, 245); fill-rule: evenodd; transform-origin: 217.66px 390.355px;" id="elahuzutg1mvw" class="animable"></path><polygon points="471.83 373.73 474.98 393.47 452.54 406.98 403.21 406.98 391.78 377.37 396.45 373.73 471.83 373.73" style="fill: rgb(245, 245, 245); fill-rule: evenodd; transform-origin: 433.38px 390.355px;" id="elubqj85vgvnq" class="animable"></polygon><path d="M396.68,405.42c-1.56-2.08-11.65-26-11.65-26l-22.33,3.11L347.43,399.7l14.76,22.86,23.49-2.06Z" style="fill: rgb(245, 245, 245); fill-rule: evenodd; transform-origin: 372.055px 400.99px;" id="el0qncvei873m" class="animable"></path><polygon points="355.83 372.68 360.67 379.45 343.54 394.1 324.4 390.35 306.35 372.68 355.83 372.68" style="fill: rgb(245, 245, 245); fill-rule: evenodd; transform-origin: 333.51px 383.39px;" id="el4ywbhlfcnb2" class="animable"></polygon><path d="M338.77,401l-15.58-4.74-16.84,9.39-13,14.92,9.15,15.16s30.05,5.46,29.91,5,23.13-18.13,23.13-18.13Z" style="fill: rgb(245, 245, 245); fill-rule: evenodd; transform-origin: 324.445px 418.509px;" id="elz84k11c9ox" class="animable"></path><path d="M303,394.09c-.72.73-14.68,12.89-14.68,12.89l-25.6-6.45,1.82-21.08,13-5.72,22.62,1.11Z" style="fill: rgb(245, 245, 245); fill-rule: evenodd; transform-origin: 282.86px 390.355px;" id="elljyzidi2dye" class="animable"></path><path d="M192.12,151.71c.21,0,.38,10.12.38,22.61s-.17,22.62-.38,22.62-.36-10.13-.36-22.62S191.91,151.71,192.12,151.71Z" style="fill: rgb(224, 224, 224); transform-origin: 192.13px 174.325px;" id="el8njsh3q9gy6" class="animable"></path><path d="M184.83,177a72.1,72.1,0,0,1,.37,10.07,71.9,71.9,0,0,1-.37,10.06,67.6,67.6,0,0,1-.37-10.06A67.73,67.73,0,0,1,184.83,177Z" style="fill: rgb(224, 224, 224); transform-origin: 184.826px 187.065px;" id="elk1smauiqwj" class="animable"></path><path d="M232,197.25a18.89,18.89,0,0,1,2.38-.15l6.47-.11c5.48,0,13.05-.11,21.41-.11,9.77,0,18.46,0,23.89.15h.23v.22c0,1.92-.07,3.5-.1,4.71a7.28,7.28,0,0,1-.13,1.68A9.5,9.5,0,0,1,286,202c0-1.21-.06-2.79-.1-4.71l.22.23c-5.43.09-14.12.14-23.89.14-8.36,0-15.93,0-21.41-.1l-6.47-.12A15.77,15.77,0,0,1,232,197.25Z" style="fill: rgb(224, 224, 224); transform-origin: 259.19px 200.26px;" id="eld2ruxiikqz8" class="animable"></path><path d="M282.91,205.06a21.52,21.52,0,0,1,0-8A22,22,0,0,1,282.91,205.06Z" style="fill: rgb(224, 224, 224); transform-origin: 282.906px 201.06px;" id="el4xr57svx0rn" class="animable"></path><path d="M278.58,205.06a22.4,22.4,0,0,1,0-8A21.52,21.52,0,0,1,278.58,205.06Z" style="fill: rgb(224, 224, 224); transform-origin: 278.587px 201.06px;" id="elqw7vmg0tak" class="animable"></path><path d="M273.85,205.06a21.52,21.52,0,0,1,0-8A22,22,0,0,1,273.85,205.06Z" style="fill: rgb(224, 224, 224); transform-origin: 273.846px 201.06px;" id="elveubu4ug8j" class="animable"></path><path d="M269.17,205.06a21.52,21.52,0,0,1,0-8A22.4,22.4,0,0,1,269.17,205.06Z" style="fill: rgb(224, 224, 224); transform-origin: 269.163px 201.06px;" id="elzswyro8pgve" class="animable"></path><path d="M264.46,205.06a22,22,0,0,1,0-8A21.52,21.52,0,0,1,264.46,205.06Z" style="fill: rgb(224, 224, 224); transform-origin: 264.464px 201.06px;" id="elvd4bgrrxrb" class="animable"></path><path d="M259.75,205.06a21.09,21.09,0,0,1,0-7.76A20.67,20.67,0,0,1,259.75,205.06Z" style="fill: rgb(224, 224, 224); transform-origin: 259.754px 201.18px;" id="el1bkqdi2fhfy" class="animable"></path><path d="M255.05,205.06a21.52,21.52,0,0,1,0-8A22.4,22.4,0,0,1,255.05,205.06Z" style="fill: rgb(224, 224, 224); transform-origin: 255.043px 201.06px;" id="elwq8zbvf7d1" class="animable"></path><path d="M250.34,205.06a21.52,21.52,0,0,1,0-8A22.4,22.4,0,0,1,250.34,205.06Z" style="fill: rgb(224, 224, 224); transform-origin: 250.333px 201.06px;" id="el702ttzj0bbo" class="animable"></path><path d="M245.63,205.06a22,22,0,0,1,0-8A22.4,22.4,0,0,1,245.63,205.06Z" style="fill: rgb(224, 224, 224); transform-origin: 245.627px 201.06px;" id="elq18r9qdgskl" class="animable"></path><path d="M240.91,205.06a22.4,22.4,0,0,1,0-8A21.11,21.11,0,0,1,240.91,205.06Z" style="fill: rgb(224, 224, 224); transform-origin: 240.921px 201.06px;" id="elx115x34bz6" class="animable"></path><path d="M236.22,205.06c-1,0-1.84-1.78-1.84-4s.81-4,1.84-4,1.82,1.79,1.82,4S237.23,205.06,236.22,205.06Z" style="fill: rgb(224, 224, 224); transform-origin: 236.21px 201.06px;" id="elg29ihp7z69g" class="animable"></path><path d="M319.47,248.5c-.3-1.93,0-28.05,0-28.05l-32.88-7.67v-9.53H238.91l-6.47-6.75H172.73v67.44H310.25Z" style="fill: rgb(235, 235, 235); transform-origin: 246.1px 230.22px;" id="el1ohhj14fl21" class="animable"></path><polygon points="359.04 245.51 359.04 237.29 319.35 235.56 319.35 246.46 359.04 245.51" style="fill: rgb(235, 235, 235); transform-origin: 339.195px 241.01px;" id="elyvcqp42jan" class="animable"></polygon><rect x="36.21" y="260.72" width="17.91" height="4.75" style="fill: rgb(224, 224, 224); transform-origin: 45.165px 263.095px;" id="elu86rgve8ew" class="animable"></rect><path d="M43.47,260.72a2.07,2.07,0,0,1,.12.57h-.24c-.15-1.3-.25-4.9-.25-9.15a62.86,62.86,0,0,1,.37-9.7,62.86,62.86,0,0,1,.36,9.7c0,4.25-.1,7.88-.24,9.15h-.24A2.23,2.23,0,0,0,43.47,260.72Z" style="fill: rgb(224, 224, 224); transform-origin: 43.4663px 251.865px;" id="elj36u7r3fqyk" class="animable"></path><path d="M118.82,255.59a3.23,3.23,0,0,1,0-.44v-6.47H119c8-.14,23-.28,40.12-.36h33.08l10,.08H205a5.17,5.17,0,0,1,1,.07,4.45,4.45,0,0,1-1,.08l-2.72.08-10,.17-33.08.26c-17.11.07-32.07.07-40.12,0l.19-.18c-.08,2.09-.13,3.75-.18,5v1.29A1.51,1.51,0,0,1,118.82,255.59Z" style="fill: rgb(224, 224, 224); transform-origin: 162.406px 251.955px;" id="el8p8m5lorpuy" class="animable"></path><path d="M194.23,255.59a17,17,0,0,1,0-7A16.38,16.38,0,0,1,194.23,255.59Z" style="fill: rgb(224, 224, 224); transform-origin: 194.237px 252.09px;" id="elyxhu62bs6dm" class="animable"></path><path d="M187.06,255.59a17,17,0,0,1,0-7A16.38,16.38,0,0,1,187.06,255.59Z" style="fill: rgb(224, 224, 224); transform-origin: 187.067px 252.09px;" id="elgkvsf2leanw" class="animable"></path><path d="M179.89,255.59a17,17,0,0,1,0-7A16.38,16.38,0,0,1,179.89,255.59Z" style="fill: rgb(224, 224, 224); transform-origin: 179.897px 252.09px;" id="el430d025gtrm" class="animable"></path><path d="M172.73,255.59a16.38,16.38,0,0,1,0-7A16.71,16.71,0,0,1,172.73,255.59Z" style="fill: rgb(224, 224, 224); transform-origin: 172.726px 252.09px;" id="elfw3s2yrjjuk" class="animable"></path><path d="M165.56,255.59a16.38,16.38,0,0,1,0-7A17,17,0,0,1,165.56,255.59Z" style="fill: rgb(224, 224, 224); transform-origin: 165.553px 252.09px;" id="elwnzgh25xzxq" class="animable"></path><path d="M158.39,255.59a16.38,16.38,0,0,1,0-7A17,17,0,0,1,158.39,255.59Z" style="fill: rgb(224, 224, 224); transform-origin: 158.383px 252.09px;" id="elirdgfnskz7b" class="animable"></path><path d="M151.22,255.59a16.38,16.38,0,0,1,0-7A17,17,0,0,1,151.22,255.59Z" style="fill: rgb(224, 224, 224); transform-origin: 151.213px 252.09px;" id="elmzo9zvamyc" class="animable"></path><path d="M144.05,255.59a17,17,0,0,1,0-7A17,17,0,0,1,144.05,255.59Z" style="fill: rgb(224, 224, 224); transform-origin: 144.05px 252.09px;" id="elegpcktylctd" class="animable"></path><path d="M136.88,255.59a17,17,0,0,1,0-7A17,17,0,0,1,136.88,255.59Z" style="fill: rgb(224, 224, 224); transform-origin: 136.88px 252.09px;" id="elfgh8r3di0yn" class="animable"></path><path d="M129.71,255.59a17,17,0,0,1,0-7A16.38,16.38,0,0,1,129.71,255.59Z" style="fill: rgb(224, 224, 224); transform-origin: 129.717px 252.09px;" id="elnw34jgkopgr" class="animable"></path><path d="M122.54,255.59a17,17,0,0,1,0-7A16.38,16.38,0,0,1,122.54,255.59Z" style="fill: rgb(224, 224, 224); transform-origin: 122.547px 252.09px;" id="elldiaomfdqf" class="animable"></path><rect x="332.65" y="229.1" width="9.71" height="9.71" style="fill: rgb(235, 235, 235); transform-origin: 337.505px 233.955px;" id="elywyehgxcj9" class="animable"></rect><rect x="336.2" y="225.9" width="2.99" height="4.78" style="fill: rgb(235, 235, 235); transform-origin: 337.695px 228.29px;" id="eleyeblknm4y" class="animable"></rect><rect x="341.18" y="231.64" width="14.42" height="1.49" style="fill: rgb(235, 235, 235); transform-origin: 348.39px 232.385px;" id="elstsa190ctdm" class="animable"></rect><polygon points="286.59 212.78 271.83 212.78 258.84 220.62 319.46 220.62 286.59 212.78" style="fill: rgb(245, 245, 245); transform-origin: 289.15px 216.7px;" id="elrav0r6ygzd" class="animable"></polygon><rect x="263.51" y="223.7" width="55.95" height="5.99" style="fill: rgb(224, 224, 224); transform-origin: 291.485px 226.695px;" id="el7ptvk0avuok" class="animable"></rect><rect x="313.16" y="222.38" width="1.35" height="8.31" style="fill: rgb(235, 235, 235); transform-origin: 313.835px 226.535px;" id="el1hgwctxc8bfh" class="animable"></rect><rect x="307.17" y="222.38" width="1.35" height="8.31" style="fill: rgb(235, 235, 235); transform-origin: 307.845px 226.535px;" id="elncutf99rs7c" class="animable"></rect><rect x="301.19" y="222.38" width="1.35" height="8.31" style="fill: rgb(235, 235, 235); transform-origin: 301.865px 226.535px;" id="elcvakehetqrr" class="animable"></rect><rect x="295.2" y="222.38" width="1.35" height="8.31" style="fill: rgb(235, 235, 235); transform-origin: 295.875px 226.535px;" id="eld55bxtwkoq" class="animable"></rect><rect x="289.22" y="222.38" width="1.35" height="8.31" style="fill: rgb(235, 235, 235); transform-origin: 289.895px 226.535px;" id="el3n472x3rfd6" class="animable"></rect><rect x="283.21" y="222.38" width="1.35" height="8.31" style="fill: rgb(235, 235, 235); transform-origin: 283.885px 226.535px;" id="el33fbxssgp4g" class="animable"></rect><rect x="277.23" y="222.38" width="1.35" height="8.31" style="fill: rgb(235, 235, 235); transform-origin: 277.905px 226.535px;" id="el85n4o1arqcj" class="animable"></rect><rect x="271.25" y="222.38" width="1.35" height="8.31" style="fill: rgb(235, 235, 235); transform-origin: 271.925px 226.535px;" id="el14w4eggqng7" class="animable"></rect><rect x="265.26" y="222.38" width="1.35" height="8.31" style="fill: rgb(235, 235, 235); transform-origin: 265.935px 226.535px;" id="el1i2yapmnxij" class="animable"></rect><path d="M272.2,203.48c1,0,1.84,2.06,1.84,4.59s-.83,4.57-1.84,4.57-1.84-2-1.84-4.57S271.18,203.48,272.2,203.48Z" style="fill: rgb(224, 224, 224); transform-origin: 272.2px 208.06px;" id="elxxay7dz9svo" class="animable"></path><path d="M172.73,239.61a2.81,2.81,0,0,1,.65-.07h1.86l7-.1,24.18-.13-.21.08c3.32-2.68,7-5.58,10.69-8.57l2.22-1.79.1-.07h.13l31.63.11,9.48.12,2.59.06a4.56,4.56,0,0,1,.9.08,6.76,6.76,0,0,1-.9,0l-2.59.07-9.48.11-31.63.12.23-.08-2.23,1.85-10.71,8.54-.1.08h-.12l-24.18-.13-7-.1h-1.86A2.52,2.52,0,0,1,172.73,239.61Z" style="fill: rgb(224, 224, 224); transform-origin: 218.34px 234.49px;" id="elz2la61bwo9i" class="animable"></path><rect x="193.08" y="224.41" width="7.91" height="15.19" style="fill: rgb(224, 224, 224); transform-origin: 197.035px 232.005px;" id="elxxc725zwmuc" class="animable"></rect><path d="M172.73,222.94a9.7,9.7,0,0,1,1.94-.14l5.32-.12c4.49,0,10.69-.1,17.54-.1,6.39,0,12.22,0,16.57.09h.13l.07.1,3.77,4.75a12.87,12.87,0,0,1,1.3,1.8,12.25,12.25,0,0,1-1.53-1.61l-4-4.55.22.09c-4.35.06-10.18.1-16.57.1-6.85,0-13.05,0-17.54-.11l-5.32-.12A9,9,0,0,1,172.73,222.94Z" style="fill: rgb(224, 224, 224); transform-origin: 196.05px 225.95px;" id="elcmsi1nks1ln" class="animable"></path><rect x="198.99" y="205.34" width="9.18" height="17.62" style="fill: rgb(224, 224, 224); transform-origin: 203.58px 214.15px;" id="elzj0l8nhkntr" class="animable"></rect><path d="M172.73,214.5a9.43,9.43,0,0,1,2-.14l5.41-.12c4.57-.06,10.89-.1,17.86-.1,6.32,0,12.11,0,16.45.09h.29v.27c0,2.59-.09,4.76-.12,6.47a14.44,14.44,0,0,1-.15,2.37,11.08,11.08,0,0,1-.16-2.37c0-1.67-.08-3.88-.13-6.47l.27.28c-4.34,0-10.13.08-16.45.08-7,0-13.29,0-17.86-.1l-5.41-.12A10.15,10.15,0,0,1,172.73,214.5Z" style="fill: rgb(224, 224, 224); transform-origin: 193.735px 218.74px;" id="elukgzorqhkt" class="animable"></path><path d="M210.14,222.64a21.25,21.25,0,0,1,0-7.95A22.13,22.13,0,0,1,210.14,222.64Z" style="fill: rgb(224, 224, 224); transform-origin: 210.132px 218.665px;" id="elz01kewr3vnb" class="animable"></path><path d="M203.59,222.64a21.25,21.25,0,0,1,0-7.95A22.13,22.13,0,0,1,203.59,222.64Z" style="fill: rgb(224, 224, 224); transform-origin: 203.582px 218.665px;" id="elmbi0ncxmbkc" class="animable"></path><path d="M197,222.64a21.68,21.68,0,0,1,0-7.95A21.26,21.26,0,0,1,197,222.64Z" style="fill: rgb(224, 224, 224); transform-origin: 197.004px 218.665px;" id="elftoty6nfz98" class="animable"></path><path d="M190.48,222.64a21.68,21.68,0,0,1,0-7.95A21.26,21.26,0,0,1,190.48,222.64Z" style="fill: rgb(224, 224, 224); transform-origin: 190.484px 218.665px;" id="el3tfpaagov8g" class="animable"></path><path d="M183.93,222.64a22.13,22.13,0,0,1,0-7.95A22.13,22.13,0,0,1,183.93,222.64Z" style="fill: rgb(224, 224, 224); transform-origin: 183.93px 218.665px;" id="el13ny9j0scs" class="animable"></path><path d="M177.38,222.64a21.25,21.25,0,0,1,0-7.95A22.13,22.13,0,0,1,177.38,222.64Z" style="fill: rgb(224, 224, 224); transform-origin: 177.372px 218.665px;" id="elsc4k44sxdvb" class="animable"></path><path d="M172.73,233.14a8.37,8.37,0,0,1,1.58-.15l4.3-.11c3.63,0,8.66-.11,14.24-.11,5.28,0,10.06,0,13.61.11h.29v.26c0,2-.07,3.62-.12,4.73a6,6,0,0,1-.16,1.74,7.77,7.77,0,0,1-.14-1.74c0-1.11-.09-2.73-.11-4.73l.25.27c-3.54,0-8.33.1-13.61.1-5.55,0-10.58,0-14.24-.1l-4.3-.13A6.54,6.54,0,0,1,172.73,233.14Z" style="fill: rgb(224, 224, 224); transform-origin: 189.74px 236.19px;" id="el7yra5kvcpxo" class="animable"></path><path d="M202.55,239.17a13,13,0,0,1,0-6.21A13.3,13.3,0,0,1,202.55,239.17Z" style="fill: rgb(224, 224, 224); transform-origin: 202.546px 236.065px;" id="eld2pl2tusr" class="animable"></path><path d="M197.16,239.17a13.3,13.3,0,0,1,0-6.21A13,13,0,0,1,197.16,239.17Z" style="fill: rgb(224, 224, 224); transform-origin: 197.164px 236.065px;" id="el20igidow18b" class="animable"></path><path d="M191.77,239.17a13.57,13.57,0,0,1,0-6.21A13.57,13.57,0,0,1,191.77,239.17Z" style="fill: rgb(224, 224, 224); transform-origin: 191.77px 236.065px;" id="el8scw44lrsjf" class="animable"></path><path d="M186.37,239.17a13.57,13.57,0,0,1,0-6.21A13,13,0,0,1,186.37,239.17Z" style="fill: rgb(224, 224, 224); transform-origin: 186.378px 236.065px;" id="el3kxti8q08zg" class="animable"></path><path d="M181,239.17a13.57,13.57,0,0,1,0-6.21A13.57,13.57,0,0,1,181,239.17Z" style="fill: rgb(224, 224, 224); transform-origin: 181px 236.065px;" id="eludopo6p397f" class="animable"></path><path d="M175.61,239.17a12.79,12.79,0,0,1,0-6.21A13.57,13.57,0,0,1,175.61,239.17Z" style="fill: rgb(224, 224, 224); transform-origin: 175.599px 236.065px;" id="elfkxxa6bemvg" class="animable"></path><polygon points="232.51 196.5 228.24 157.06 237.82 152.18 206.44 152.18 218.34 157.23 208.17 196.5 232.51 196.5" style="fill: rgb(224, 224, 224); transform-origin: 222.13px 174.34px;" id="elurz08m01kts" class="animable"></polygon><path d="M206.44,152.18a9.77,9.77,0,0,1-.15-2c0-1.45-.07-3.29-.11-5.5v-.26h.28c4.08-.06,9.6-.1,15.67-.1s11.65,0,15.7.1h.28v.26c0,2.21-.08,4.05-.12,5.5a10.51,10.51,0,0,1-.14,2,9.13,9.13,0,0,1-.16-2c0-1.45-.08-3.29-.11-5.5l.27.27c-4.09.07-9.62.1-15.7.1s-11.65,0-15.68-.1l.26-.27c0,2.21-.07,4.05-.11,5.5A8.54,8.54,0,0,1,206.44,152.18Z" style="fill: rgb(224, 224, 224); transform-origin: 222.145px 148.25px;" id="elwdajltbtomi" class="animable"></path><path d="M233.59,151.83a16.66,16.66,0,0,1,0-6.89A16.66,16.66,0,0,1,233.59,151.83Z" style="fill: rgb(224, 224, 224); transform-origin: 233.59px 148.385px;" id="ele5r46tw88le" class="animable"></path><path d="M228.85,151.83a16.66,16.66,0,0,1,0-6.89A16,16,0,0,1,228.85,151.83Z" style="fill: rgb(224, 224, 224); transform-origin: 228.858px 148.385px;" id="elsgc8d2zmi1m" class="animable"></path><path d="M224.13,151.83a16.33,16.33,0,0,1,0-6.89A16.66,16.66,0,0,1,224.13,151.83Z" style="fill: rgb(224, 224, 224); transform-origin: 224.126px 148.385px;" id="eltvcskmx28h" class="animable"></path><path d="M219.4,151.83a16,16,0,0,1,0-6.89A16.33,16.33,0,0,1,219.4,151.83Z" style="fill: rgb(224, 224, 224); transform-origin: 219.396px 148.385px;" id="el1lrx9omoude" class="animable"></path><path d="M214.67,151.83a16.33,16.33,0,0,1,0-6.89A16.66,16.66,0,0,1,214.67,151.83Z" style="fill: rgb(224, 224, 224); transform-origin: 214.666px 148.385px;" id="el4akiafy0iib" class="animable"></path><path d="M209.94,151.83a16,16,0,0,1,0-6.89A16.33,16.33,0,0,1,209.94,151.83Z" style="fill: rgb(224, 224, 224); transform-origin: 209.936px 148.385px;" id="eli5uza6hjyje" class="animable"></path><path d="M216.91,113.62c.2,0,.37,8.79.37,19.62s-.17,19.62-.37,19.62-.37-8.78-.37-19.62S216.72,113.62,216.91,113.62Z" style="fill: rgb(224, 224, 224); transform-origin: 216.91px 133.24px;" id="elj72wsglmfs" class="animable"></path><path d="M226.39,132.53a68.93,68.93,0,0,1,.37,9.85,68.93,68.93,0,0,1-.37,9.85,64.82,64.82,0,0,1-.37-9.85A64.82,64.82,0,0,1,226.39,132.53Z" style="fill: rgb(224, 224, 224); transform-origin: 226.386px 142.38px;" id="el9a1s59eoybo" class="animable"></path><path d="M216.91,132.51a92.71,92.71,0,0,1,12,0,100.21,100.21,0,0,1,12,.67,96.57,96.57,0,0,1-12,0A102.16,102.16,0,0,1,216.91,132.51Z" style="fill: rgb(224, 224, 224); transform-origin: 228.91px 132.841px;" id="el417d0lgvtk3" class="animable"></path><polygon points="480.81 239.61 448.31 287.21 18.49 287.21 14.83 264.9 113.35 264.73 118.83 255.59 199.59 255.59 207.08 246.27 480.81 239.61" style="fill: rgb(224, 224, 224); transform-origin: 247.82px 263.41px;" id="eloice4y9n67" class="animable"></polygon><line x1="368.84" y1="242.34" x2="278.31" y2="288.88" style="fill: none; transform-origin: 323.575px 265.61px;" id="elwu5tvcx7ov" class="animable"></line><path d="M323.57,243.44s-.11.21-.35.59l-1.09,1.71-4.27,6.58-16.09,24.59-.06.1h-.13l-122.21-.77-114.65-.95L30,274.92l-9.43-.13-2.46-.07H30l34.74.14,114.65.74,122.21,1-.21.11,16.27-24.44,4.38-6.47,1.13-1.67A5.54,5.54,0,0,1,323.57,243.44Z" style="fill: rgb(235, 235, 235); transform-origin: 170.84px 260.225px;" id="el069hlzzm0h72" class="animable"></path><rect x="294.33" y="252.91" width="9.9" height="2.86" style="fill: rgb(235, 235, 235); transform-origin: 299.28px 254.34px;" id="elbuynunai7aw" class="animable"></rect><rect x="446.07" y="249" width="9.9" height="2.86" style="fill: rgb(235, 235, 235); transform-origin: 451.02px 250.43px;" id="el4uwdqz0944" class="animable"></rect><rect x="424.59" y="249" width="9.9" height="2.86" style="fill: rgb(235, 235, 235); transform-origin: 429.54px 250.43px;" id="elx4os3xou44s" class="animable"></rect><rect x="403.11" y="249" width="9.9" height="2.86" style="fill: rgb(235, 235, 235); transform-origin: 408.06px 250.43px;" id="elzp4x5tz686b" class="animable"></rect><rect x="381.63" y="249" width="9.9" height="2.86" style="fill: rgb(235, 235, 235); transform-origin: 386.58px 250.43px;" id="elnqtigoen1u" class="animable"></rect><rect x="360.14" y="249" width="9.9" height="2.86" style="fill: rgb(235, 235, 235); transform-origin: 365.09px 250.43px;" id="eldhgymvm7aza" class="animable"></rect><rect x="338.66" y="249" width="9.9" height="2.86" style="fill: rgb(235, 235, 235); transform-origin: 343.61px 250.43px;" id="elzwtqyty2pha" class="animable"></rect><rect x="274.14" y="252.91" width="9.9" height="2.86" style="fill: rgb(235, 235, 235); transform-origin: 279.09px 254.34px;" id="elju4ti720l3j" class="animable"></rect><rect x="254.45" y="252.91" width="9.9" height="2.86" style="fill: rgb(235, 235, 235); transform-origin: 259.4px 254.34px;" id="elbsmx4o7xiw" class="animable"></rect><rect x="234.75" y="252.91" width="9.9" height="2.86" style="fill: rgb(235, 235, 235); transform-origin: 239.7px 254.34px;" id="elo4mnzq0mma" class="animable"></rect><rect x="215.08" y="252.91" width="9.9" height="2.86" style="fill: rgb(235, 235, 235); transform-origin: 220.03px 254.34px;" id="elntn3panh4yo" class="animable"></rect><rect x="187.5" y="260.14" width="9.9" height="2.86" style="fill: rgb(235, 235, 235); transform-origin: 192.45px 261.57px;" id="elk5fnhz5zyf" class="animable"></rect><rect x="167.66" y="260.14" width="9.9" height="2.86" style="fill: rgb(235, 235, 235); transform-origin: 172.61px 261.57px;" id="ele62hu28mqjd" class="animable"></rect><rect x="149.25" y="259.92" width="9.9" height="2.86" style="fill: rgb(235, 235, 235); transform-origin: 154.2px 261.35px;" id="elqc4myx15hy" class="animable"></rect><rect x="127.94" y="259.92" width="9.9" height="2.86" style="fill: rgb(235, 235, 235); transform-origin: 132.89px 261.35px;" id="elob0bwz13ac" class="animable"></rect><path d="M86.74,155.64a13.85,13.85,0,0,1,1.61-3.33,4.6,4.6,0,0,1,3-2,2.81,2.81,0,0,1,3,1.68,17.44,17.44,0,0,1,1.87-7.64c1.32-2.29,3.79-4.09,6.43-3.93a7.54,7.54,0,0,1,5.8,4.2,22.09,22.09,0,0,1,2,7.18c1-1.16,2.94-.8,3.93.33a7.83,7.83,0,0,1,1.44,4.17H86.13Z" style="fill: rgb(235, 235, 235); transform-origin: 100.975px 148.355px;" id="elbx7du0rdv7v" class="animable"></path><path d="M316.77,54.14a13.52,13.52,0,0,1,1.6-3.34,4.61,4.61,0,0,1,3-2,2.8,2.8,0,0,1,3,1.68,17.54,17.54,0,0,1,1.87-7.64c1.32-2.29,3.79-4.09,6.43-3.93a7.52,7.52,0,0,1,5.81,4.2,22.29,22.29,0,0,1,2,7.17c.94-1.16,2.93-.79,3.92.33a7.89,7.89,0,0,1,1.44,4.17H316.15Z" style="fill: rgb(235, 235, 235); transform-origin: 330.995px 46.84px;" id="elm91c6fg5ia" class="animable"></path><path d="M159.2,40.32A13.85,13.85,0,0,1,160.81,37a4.6,4.6,0,0,1,3-2,2.82,2.82,0,0,1,3,1.68,17.44,17.44,0,0,1,1.87-7.64c1.32-2.29,3.78-4.09,6.42-3.93a7.55,7.55,0,0,1,5.81,4.2,22.34,22.34,0,0,1,2,7.18c.94-1.16,2.94-.8,3.92.33A7.76,7.76,0,0,1,188.28,41h-29.7Z" style="fill: rgb(245, 245, 245); transform-origin: 173.43px 33.0501px;" id="el9dsbuxk0jww" class="animable"></path><path d="M215.4,86.86a29.28,29.28,0,0,1,3.44-7.12,9.81,9.81,0,0,1,6.46-4.2c2.62-.32,5.53,1.09,6.38,3.59.38-5.63,1.18-11.41,4-16.31s8.08-8.73,13.72-8.39c5.31.33,9.86,4.28,12.39,9s3.4,10.06,4.23,15.32c2-2.47,6.27-1.69,8.37.71s2.64,5.75,3.08,8.91H214.08Z" style="fill: rgb(245, 245, 245); transform-origin: 245.775px 71.3895px;" id="el53vskxsli0x" class="animable"></path><path d="M406.26,74.11a20,20,0,0,1,2.37-4.9,6.75,6.75,0,0,1,4.45-2.9,4.13,4.13,0,0,1,4.4,2.48c.26-3.89.81-7.87,2.76-11.24s5.57-6,9.46-5.79c3.66.22,6.8,3,8.54,6.18s2.34,6.93,2.92,10.56c1.39-1.7,4.32-1.17,5.77.48s1.81,4,2.12,6.15h-43.7Z" style="fill: rgb(245, 245, 245); transform-origin: 427.2px 63.4391px;" id="elguo6swqf6j" class="animable"></path><path d="M334.72,121.83a29.42,29.42,0,0,1,3.43-7.12,9.84,9.84,0,0,1,6.46-4.2c2.63-.32,5.53,1.09,6.39,3.6.37-5.64,1.17-11.42,4-16.31s8.09-8.74,13.72-8.4c5.32.33,9.87,4.28,12.4,9s3.4,10.07,4.23,15.33c2-2.48,6.27-1.7,8.37.7s2.63,5.75,3.08,8.91H333.4Z" style="fill: rgb(245, 245, 245); transform-origin: 365.1px 106.36px;" id="el85uymjczbco" class="animable"></path><path d="M21.67,121.82a29.21,29.21,0,0,1,3.44-7.11,9.8,9.8,0,0,1,6.46-4.21c2.62-.32,5.53,1.1,6.38,3.6.38-5.64,1.18-11.42,4-16.31S50,89.05,55.67,89.4c5.31.32,9.86,4.27,12.39,9s3.4,10.06,4.23,15.32c2-2.47,6.27-1.69,8.37.7s2.64,5.75,3.08,8.91H20.35Z" style="fill: rgb(245, 245, 245); transform-origin: 52.045px 106.354px;" id="elz9cjl3db9lg" class="animable"></path></g><g id="freepik--Water--inject-116" class="animable" style="transform-origin: 248.955px 299.13px;"><path d="M486.92,287.26c0,.14-106.54.26-237.93.26s-238-.12-238-.26S117.55,287,249,287,486.92,287.12,486.92,287.26Z" style="fill: rgb(38, 50, 56); transform-origin: 248.955px 287.26px;" id="elgyy5s9m32qi" class="animable"></path><path d="M263.41,293.1c0,.14-29.05.26-64.86.26s-64.87-.12-64.87-.26,29-.26,64.87-.26S263.41,293,263.41,293.1Z" style="fill: rgb(38, 50, 56); transform-origin: 198.545px 293.1px;" id="elnltj1ajy8i" class="animable"></path><path d="M290,301.63c0,.14-29,.26-64.86.26s-64.87-.12-64.87-.26,29-.26,64.87-.26S290,301.49,290,301.63Z" style="fill: rgb(38, 50, 56); transform-origin: 225.135px 301.63px;" id="el1hnhe4boulb" class="animable"></path><path d="M216.94,311c0,.14-15.22.26-34,.26s-34-.12-34-.26,15.21-.26,34-.26S216.94,310.88,216.94,311Z" style="fill: rgb(38, 50, 56); transform-origin: 182.94px 311px;" id="ele7du9f3s3vh" class="animable"></path></g><g id="freepik--Dock--inject-116" class="animable" style="transform-origin: 247px 350.015px;"><rect x="322.71" y="336.83" width="18.4" height="33.24" style="fill: rgb(174, 116, 97); transform-origin: 331.91px 353.45px;" id="elmu6brb328i" class="animable"></rect><path d="M342.09,349.59l-19.91,2.54a2.15,2.15,0,0,1-2.39-1.86h0a2.13,2.13,0,0,1,1.85-2.38h0l19.91-2.54a2.15,2.15,0,0,1,2.39,1.85h0A2.14,2.14,0,0,1,342.09,349.59Z" style="fill: rgb(69, 90, 100); transform-origin: 331.865px 348.74px;" id="eldcmro9n4c9r" class="animable"></path><path d="M324.79,351.88s-.3-.06-.62-.37a3,3,0,0,1-.75-3.24c.16-.41.36-.62.4-.59a6.08,6.08,0,0,0-.15,2.25A5.67,5.67,0,0,0,324.79,351.88Z" style="fill: rgb(38, 50, 56); transform-origin: 324.009px 349.779px;" id="el9z7ntf3913g" class="animable"></path><path d="M322.68,351.93c0,.05-.28-.05-.6-.33a2.94,2.94,0,0,1-.87-1.45,2.83,2.83,0,0,1,.12-1.68c.17-.4.36-.6.41-.57a5.09,5.09,0,0,0-.14,2.16A5.75,5.75,0,0,0,322.68,351.93Z" style="fill: rgb(38, 50, 56); transform-origin: 321.907px 349.92px;" id="el46e0ms74utt" class="animable"></path><path d="M326.83,351.49s-.29-.06-.61-.37a3,3,0,0,1-.72-3.23c.16-.42.36-.62.4-.59a5.69,5.69,0,0,0-.15,2.25A6,6,0,0,0,326.83,351.49Z" style="fill: rgb(38, 50, 56); transform-origin: 326.066px 349.394px;" id="els2l84okzb4t" class="animable"></path><path d="M328.87,351.23s-.29-.06-.62-.36a3,3,0,0,1-.75-3.25c.18-.41.37-.61.41-.59a5.69,5.69,0,0,0-.15,2.25A5.81,5.81,0,0,0,328.87,351.23Z" style="fill: rgb(38, 50, 56); transform-origin: 328.087px 349.129px;" id="elimfwoe5bqwc" class="animable"></path><path d="M331,351s-.29-.06-.61-.37a3,3,0,0,1-.72-3.23c.16-.42.36-.62.4-.59a5.69,5.69,0,0,0-.15,2.25A5.79,5.79,0,0,0,331,351Z" style="fill: rgb(38, 50, 56); transform-origin: 330.236px 348.904px;" id="el8vdpjn3htfg" class="animable"></path><path d="M333,350.71s-.29-.06-.62-.37a3.05,3.05,0,0,1-.85-1.5,3,3,0,0,1,.14-1.73c.16-.42.36-.62.4-.6a4,4,0,0,0,.93,4.2Z" style="fill: rgb(38, 50, 56); transform-origin: 332.231px 348.609px;" id="el7mg6oismvox" class="animable"></path><path d="M335,350.48a1.42,1.42,0,0,1-.61-.36,3,3,0,0,1-.72-3.23c.16-.42.36-.62.4-.6a4,4,0,0,0,.93,4.21Z" style="fill: rgb(38, 50, 56); transform-origin: 334.236px 348.394px;" id="el8bvwzpga0c" class="animable"></path><path d="M337.07,350.27s-.29-.06-.62-.37a3,3,0,0,1-.84-1.5,3,3,0,0,1,.13-1.73c.17-.41.36-.62.4-.59a5.69,5.69,0,0,0-.15,2.25A5.79,5.79,0,0,0,337.07,350.27Z" style="fill: rgb(38, 50, 56); transform-origin: 336.304px 348.174px;" id="elj8tpfd3imea" class="animable"></path><path d="M339,350s-.28-.06-.61-.37a3,3,0,0,1-.85-1.5,3.13,3.13,0,0,1,.13-1.74c.17-.41.36-.61.4-.59A4,4,0,0,0,339,350Z" style="fill: rgb(38, 50, 56); transform-origin: 338.236px 347.899px;" id="elqvctf6savet" class="animable"></path><path d="M340.91,349.65c0,.05-.27,0-.6-.34a2.91,2.91,0,0,1-.76-3.17c.17-.41.36-.6.4-.58a5.53,5.53,0,0,0-.14,2.18A6.07,6.07,0,0,0,340.91,349.65Z" style="fill: rgb(38, 50, 56); transform-origin: 340.137px 347.613px;" id="elmfuqe6wyfe" class="animable"></path><path d="M342.84,349.34c0,.05-.28,0-.61-.33a2.81,2.81,0,0,1-.85-1.43,2.72,2.72,0,0,1,.11-1.67c.17-.4.36-.58.4-.56a5.32,5.32,0,0,0-.14,2.14A6,6,0,0,0,342.84,349.34Z" style="fill: rgb(38, 50, 56); transform-origin: 342.069px 347.353px;" id="elwd3u835ycve" class="animable"></path><path d="M318.49,329.7h28.07a7.13,7.13,0,0,1,7.12,7.13h0a7.12,7.12,0,0,1-7.12,7.12H318.49a7.13,7.13,0,0,1-7.13-7.12h0A7.13,7.13,0,0,1,318.49,329.7Z" style="fill: rgb(174, 116, 97); transform-origin: 332.52px 336.825px;" id="elzrgk814b0m" class="animable"></path><path d="M342,356.29H321.88a2.14,2.14,0,0,1-2.13-2.14h0a2.13,2.13,0,0,1,2.13-2.13H342a2.13,2.13,0,0,1,2.14,2.13h0A2.15,2.15,0,0,1,342,356.29Z" style="fill: rgb(69, 90, 100); transform-origin: 331.945px 354.155px;" id="el1yjmc1jooh6" class="animable"></path><path d="M342,360.39H321.88a2.14,2.14,0,0,1-2.13-2.14h0a2.13,2.13,0,0,1,2.13-2.14H342a2.14,2.14,0,0,1,2.14,2.14h0A2.15,2.15,0,0,1,342,360.39Z" style="fill: rgb(69, 90, 100); transform-origin: 331.945px 358.25px;" id="el9i0l9thgepb" class="animable"></path><path d="M342.47,356.24c0,.1-4.71.19-10.51.19s-10.52-.09-10.52-.19,4.72-.2,10.52-.2S342.47,356.12,342.47,356.24Z" style="fill: rgb(38, 50, 56); transform-origin: 331.955px 356.235px;" id="el9x6sbi65r35" class="animable"></path><path d="M342.4,352c0,.11-4.79.19-10.68.19S321,352.1,321,352s4.78-.2,10.69-.2S342.4,351.89,342.4,352Z" style="fill: rgb(38, 50, 56); transform-origin: 331.7px 351.995px;" id="elg29zksq4yf4" class="animable"></path><path d="M323.49,356.23s-.29-.06-.61-.36a3.1,3.1,0,0,1-.86-1.5,2.9,2.9,0,0,1,.09-1.7c.15-.42.33-.62.37-.6a5.88,5.88,0,0,0-.07,2.21A6.12,6.12,0,0,0,323.49,356.23Z" style="fill: rgb(38, 50, 56); transform-origin: 322.712px 354.149px;" id="elhicyup8qjmm" class="animable"></path><path d="M325.57,356.11s-.29,0-.61-.32a2.77,2.77,0,0,1-.75-3.08c.16-.4.35-.6.4-.57a5.15,5.15,0,0,0-.12,2.14A5.31,5.31,0,0,0,325.57,356.11Z" style="fill: rgb(38, 50, 56); transform-origin: 324.796px 354.124px;" id="ely4nwj1213ae" class="animable"></path><path d="M328.11,356.11s-.28,0-.61-.32a2.81,2.81,0,0,1-.75-3.08c.17-.4.36-.6.39-.57a3.67,3.67,0,0,0,1,4Z" style="fill: rgb(38, 50, 56); transform-origin: 327.355px 354.139px;" id="elplrzmrbxce" class="animable"></path><path d="M330.66,356.11s-.29,0-.61-.32a2.77,2.77,0,0,1-.75-3.08c.16-.4.35-.6.39-.57a5.51,5.51,0,0,0-.12,2.14A5.1,5.1,0,0,0,330.66,356.11Z" style="fill: rgb(38, 50, 56); transform-origin: 329.886px 354.124px;" id="eleowzytwpv7v" class="animable"></path><path d="M333.2,356.11s-.28,0-.61-.32a2.81,2.81,0,0,1-.75-3.08c.16-.4.36-.6.39-.57a5.51,5.51,0,0,0-.12,2.14A5.4,5.4,0,0,0,333.2,356.11Z" style="fill: rgb(38, 50, 56); transform-origin: 332.43px 354.124px;" id="el5xz0yllktvj" class="animable"></path><path d="M335.74,356.11s-.28,0-.6-.32a2.87,2.87,0,0,1-.86-1.42,2.77,2.77,0,0,1,.11-1.66c.16-.4.35-.6.39-.57a5.51,5.51,0,0,0-.12,2.14A5.31,5.31,0,0,0,335.74,356.11Z" style="fill: rgb(38, 50, 56); transform-origin: 334.971px 354.124px;" id="elle0iisqqkc" class="animable"></path><path d="M338.29,356.11s-.28,0-.6-.32a2.77,2.77,0,0,1-.87-1.42,2.84,2.84,0,0,1,.11-1.66c.16-.4.36-.6.39-.57a3.66,3.66,0,0,0,1,4Z" style="fill: rgb(38, 50, 56); transform-origin: 337.532px 354.138px;" id="elcl545ksil2q" class="animable"></path><path d="M340.83,356.11s-.28,0-.61-.32a2.78,2.78,0,0,1-.85-1.42,2.69,2.69,0,0,1,.11-1.66c.16-.4.34-.6.39-.57a5.51,5.51,0,0,0-.12,2.14A5.31,5.31,0,0,0,340.83,356.11Z" style="fill: rgb(38, 50, 56); transform-origin: 340.059px 354.124px;" id="elh7j8jd0tt7b" class="animable"></path><path d="M343.38,356.11s-.28,0-.61-.32a2.8,2.8,0,0,1-.86-1.42,2.84,2.84,0,0,1,.11-1.66c.16-.4.35-.6.4-.57a5.33,5.33,0,0,0-.13,2.14A5.5,5.5,0,0,0,343.38,356.11Z" style="fill: rgb(38, 50, 56); transform-origin: 342.607px 354.124px;" id="el08v2s5x2tdrt" class="animable"></path><path d="M322.6,360.24a5.54,5.54,0,0,0-.49-4.05,1.14,1.14,0,0,1,.48.45,3.24,3.24,0,0,1,.54,1.5,3.4,3.4,0,0,1-.17,1.58C322.81,360.06,322.65,360.24,322.6,360.24Z" style="fill: rgb(38, 50, 56); transform-origin: 322.634px 358.215px;" id="el8hl7ceadjfq" class="animable"></path><path d="M324.93,360.24a9.53,9.53,0,0,0,.14-2.07,10,10,0,0,0-.64-2s.24.11.48.45a3.25,3.25,0,0,1,.55,1.5,3.4,3.4,0,0,1-.17,1.58C325.14,360.06,325,360.24,324.93,360.24Z" style="fill: rgb(38, 50, 56); transform-origin: 324.959px 358.205px;" id="el8dwqiil7ety" class="animable"></path><path d="M327.24,360.24a9.53,9.53,0,0,0,.14-2.07,9.92,9.92,0,0,0-.63-2,1.37,1.37,0,0,1,.48.45,3.24,3.24,0,0,1,.54,1.5,3.4,3.4,0,0,1-.17,1.58C327.47,360.06,327.3,360.24,327.24,360.24Z" style="fill: rgb(38, 50, 56); transform-origin: 327.274px 358.205px;" id="el14dyfouap54" class="animable"></path><path d="M329.58,360.24a9.53,9.53,0,0,0,.15-2.07,11.43,11.43,0,0,0-.64-2,1.37,1.37,0,0,1,.48.45,3.42,3.42,0,0,1,.37,3.06C329.79,360.06,329.63,360.24,329.58,360.24Z" style="fill: rgb(38, 50, 56); transform-origin: 329.617px 358.205px;" id="eljwq5zykdcj" class="animable"></path><path d="M331.91,360.24a9.53,9.53,0,0,0,.14-2.07,10.61,10.61,0,0,0-.63-2,1.31,1.31,0,0,1,.47.45,3.14,3.14,0,0,1,.55,1.5,3.27,3.27,0,0,1-.18,1.58C332.12,360.06,332,360.24,331.91,360.24Z" style="fill: rgb(38, 50, 56); transform-origin: 331.944px 358.205px;" id="elu1fdtt3nxmn" class="animable"></path><path d="M334.24,360.24a10.2,10.2,0,0,0,.14-2.07,10,10,0,0,0-.64-2,1.14,1.14,0,0,1,.48.45,3.39,3.39,0,0,1,.37,3.06C334.45,360.06,334.28,360.24,334.24,360.24Z" style="fill: rgb(38, 50, 56); transform-origin: 334.269px 358.205px;" id="eljot01ot7n8q" class="animable"></path><path d="M336.57,360.24a11,11,0,0,0,.14-2.07,10,10,0,0,0-.65-2s.25.11.48.45a3.4,3.4,0,0,1,.38,3.06A1.12,1.12,0,0,1,336.57,360.24Z" style="fill: rgb(38, 50, 56); transform-origin: 336.591px 358.205px;" id="elft5ql7nc5ru" class="animable"></path><path d="M338.89,360.24a10.2,10.2,0,0,0,.15-2.07,10,10,0,0,0-.65-2,1.28,1.28,0,0,1,.48.45,3.4,3.4,0,0,1,.38,3.06C339.1,360.06,338.93,360.24,338.89,360.24Z" style="fill: rgb(38, 50, 56); transform-origin: 338.921px 358.205px;" id="elremg834yais" class="animable"></path><path d="M341.21,360.24a5.35,5.35,0,0,0-.49-4.05s.25.11.48.45a3.37,3.37,0,0,1,.55,1.5,3.27,3.27,0,0,1-.18,1.58C341.42,360.06,341.26,360.24,341.21,360.24Z" style="fill: rgb(38, 50, 56); transform-origin: 341.249px 358.215px;" id="ely5vq03ec7s" class="animable"></path><path d="M347.14,343.82s-6.86.07-15.32.07-15.32,0-15.32-.07,6.86-.06,15.32-.06S347.14,343.79,347.14,343.82Z" style="fill: rgb(38, 50, 56); transform-origin: 331.82px 343.825px;" id="elbqo83zgnkxo" class="animable"></path><rect x="231.42" y="336.83" width="18.4" height="33.24" style="fill: rgb(174, 116, 97); transform-origin: 240.62px 353.45px;" id="ele38dl9uptmh" class="animable"></rect><path d="M250.8,349.59l-19.91,2.54a2.15,2.15,0,0,1-2.39-1.86h0a2.13,2.13,0,0,1,1.84-2.38h0l19.91-2.54a2.15,2.15,0,0,1,2.39,1.85h0A2.15,2.15,0,0,1,250.8,349.59Z" style="fill: rgb(69, 90, 100); transform-origin: 240.569px 348.74px;" id="eljlss183qlp8" class="animable"></path><path d="M233.49,351.88s-.29-.06-.61-.37a3,3,0,0,1-.75-3.24c.16-.41.36-.62.4-.59a5.87,5.87,0,0,0-.15,2.25A5.81,5.81,0,0,0,233.49,351.88Z" style="fill: rgb(38, 50, 56); transform-origin: 232.714px 349.779px;" id="el4n5u3ugrx59" class="animable"></path><path d="M231.39,351.93c0,.05-.28-.05-.61-.33a3,3,0,0,1-.86-1.45,2.83,2.83,0,0,1,.12-1.68c.17-.4.36-.6.41-.57a5.25,5.25,0,0,0-.15,2.16A6,6,0,0,0,231.39,351.93Z" style="fill: rgb(38, 50, 56); transform-origin: 230.617px 349.92px;" id="el0mapq8u69up" class="animable"></path><path d="M235.54,351.49s-.29-.06-.61-.37a3,3,0,0,1-.72-3.23c.16-.42.36-.62.4-.59a5.69,5.69,0,0,0-.15,2.25A6,6,0,0,0,235.54,351.49Z" style="fill: rgb(38, 50, 56); transform-origin: 234.776px 349.394px;" id="elio1fnzeqj6f" class="animable"></path><path d="M237.58,351.23s-.29-.06-.62-.36a3,3,0,0,1-.75-3.25c.18-.41.37-.61.41-.59a5.69,5.69,0,0,0-.15,2.25A5.81,5.81,0,0,0,237.58,351.23Z" style="fill: rgb(38, 50, 56); transform-origin: 236.797px 349.129px;" id="elg13jjs7ih2" class="animable"></path><path d="M239.7,351s-.28-.06-.6-.37a3,3,0,0,1-.85-1.5,2.92,2.92,0,0,1,.13-1.73c.16-.42.36-.62.4-.59a5.69,5.69,0,0,0-.15,2.25A5.94,5.94,0,0,0,239.7,351Z" style="fill: rgb(38, 50, 56); transform-origin: 238.938px 348.904px;" id="eldvg5z6wjeht" class="animable"></path><path d="M241.69,350.71s-.29-.06-.62-.37a3.05,3.05,0,0,1-.85-1.5,3,3,0,0,1,.14-1.73c.16-.42.36-.62.4-.6a5.71,5.71,0,0,0-.15,2.25A5.58,5.58,0,0,0,241.69,350.71Z" style="fill: rgb(38, 50, 56); transform-origin: 240.921px 348.609px;" id="elbmjugjye52v" class="animable"></path><path d="M243.68,350.48a1.42,1.42,0,0,1-.61-.36,3,3,0,0,1-.72-3.23c.16-.42.36-.62.4-.6a4,4,0,0,0,.93,4.21Z" style="fill: rgb(38, 50, 56); transform-origin: 242.916px 348.394px;" id="elwk3l9cr24f" class="animable"></path><path d="M245.78,350.27s-.29-.06-.62-.37a3,3,0,0,1-.84-1.5,3,3,0,0,1,.13-1.73c.16-.41.36-.62.4-.59a5.69,5.69,0,0,0-.15,2.25A5.79,5.79,0,0,0,245.78,350.27Z" style="fill: rgb(38, 50, 56); transform-origin: 245.014px 348.174px;" id="eldqhbd2dexxm" class="animable"></path><path d="M247.7,350s-.29-.06-.62-.37a3,3,0,0,1-.84-1.5,3.13,3.13,0,0,1,.13-1.74c.17-.41.36-.61.4-.59a4,4,0,0,0,.93,4.2Z" style="fill: rgb(38, 50, 56); transform-origin: 246.936px 347.899px;" id="elo2fuj9z7nvt" class="animable"></path><path d="M249.62,349.65c0,.05-.28,0-.61-.34a2.92,2.92,0,0,1-.75-3.17c.17-.41.36-.6.4-.58a5.53,5.53,0,0,0-.14,2.18A5.88,5.88,0,0,0,249.62,349.65Z" style="fill: rgb(38, 50, 56); transform-origin: 248.847px 347.613px;" id="elo8g8rm49hr" class="animable"></path><path d="M251.55,349.34c0,.05-.28,0-.61-.33a2.81,2.81,0,0,1-.85-1.43,2.72,2.72,0,0,1,.11-1.67c.17-.4.36-.58.4-.56a5.32,5.32,0,0,0-.14,2.14A5.58,5.58,0,0,0,251.55,349.34Z" style="fill: rgb(38, 50, 56); transform-origin: 250.779px 347.353px;" id="elzqhvawvysrh" class="animable"></path><path d="M227.2,329.7h28.07a7.13,7.13,0,0,1,7.12,7.13h0a7.12,7.12,0,0,1-7.12,7.12H227.2a7.13,7.13,0,0,1-7.13-7.12h0A7.13,7.13,0,0,1,227.2,329.7Z" style="fill: rgb(174, 116, 97); transform-origin: 241.23px 336.825px;" id="el55gadgpqit6" class="animable"></path><path d="M250.66,356.29H230.59a2.14,2.14,0,0,1-2.13-2.14h0a2.13,2.13,0,0,1,2.13-2.13h20.07a2.14,2.14,0,0,1,2.14,2.13h0A2.16,2.16,0,0,1,250.66,356.29Z" style="fill: rgb(69, 90, 100); transform-origin: 240.63px 354.155px;" id="elrnoqnbjaj7" class="animable"></path><path d="M250.66,360.39H230.59a2.14,2.14,0,0,1-2.13-2.14h0a2.13,2.13,0,0,1,2.13-2.14h20.07a2.15,2.15,0,0,1,2.14,2.14h0A2.16,2.16,0,0,1,250.66,360.39Z" style="fill: rgb(69, 90, 100); transform-origin: 240.63px 358.25px;" id="el2acrrncdrhh" class="animable"></path><path d="M251.18,356.24c0,.1-4.71.19-10.51.19s-10.52-.09-10.52-.19,4.72-.2,10.52-.2S251.18,356.12,251.18,356.24Z" style="fill: rgb(38, 50, 56); transform-origin: 240.665px 356.235px;" id="el4sgragpb9ym" class="animable"></path><path d="M251.11,352c0,.11-4.79.19-10.69.19s-10.68-.08-10.68-.19,4.78-.2,10.68-.2S251.11,351.89,251.11,352Z" style="fill: rgb(38, 50, 56); transform-origin: 240.425px 351.995px;" id="elmakxw3ery1" class="animable"></path><path d="M232.2,356.23s-.29-.06-.61-.36a3.1,3.1,0,0,1-.86-1.5,3,3,0,0,1,.08-1.7c.15-.42.33-.62.38-.6a4.12,4.12,0,0,0,1,4.16Z" style="fill: rgb(38, 50, 56); transform-origin: 231.422px 354.149px;" id="eluu8dxuht1a" class="animable"></path><path d="M234.28,356.11s-.29,0-.61-.32a2.77,2.77,0,0,1-.75-3.08c.16-.4.35-.6.39-.57a3.66,3.66,0,0,0,1,4Z" style="fill: rgb(38, 50, 56); transform-origin: 233.521px 354.139px;" id="elt20nawqyt4" class="animable"></path><path d="M236.82,356.11s-.28,0-.61-.32a2.81,2.81,0,0,1-.75-3.08c.17-.4.35-.6.39-.57a3.67,3.67,0,0,0,1,4Z" style="fill: rgb(38, 50, 56); transform-origin: 236.065px 354.139px;" id="el3ywt3shtkpt" class="animable"></path><path d="M239.37,356.11s-.29,0-.61-.32a2.77,2.77,0,0,1-.75-3.08c.16-.4.35-.6.39-.57a5.51,5.51,0,0,0-.12,2.14A5.1,5.1,0,0,0,239.37,356.11Z" style="fill: rgb(38, 50, 56); transform-origin: 238.596px 354.124px;" id="elyrb1asdim1t" class="animable"></path><path d="M241.91,356.11s-.28,0-.61-.32a2.81,2.81,0,0,1-.75-3.08c.16-.4.36-.6.39-.57a5.51,5.51,0,0,0-.12,2.14A5.4,5.4,0,0,0,241.91,356.11Z" style="fill: rgb(38, 50, 56); transform-origin: 241.14px 354.124px;" id="el27fmhmhwrf9" class="animable"></path><path d="M244.45,356.11s-.28,0-.6-.32a2.8,2.8,0,0,1-.86-1.42,2.77,2.77,0,0,1,.11-1.66c.16-.4.35-.6.39-.57a5.51,5.51,0,0,0-.12,2.14A5.31,5.31,0,0,0,244.45,356.11Z" style="fill: rgb(38, 50, 56); transform-origin: 243.681px 354.124px;" id="elhywwpv5e50b" class="animable"></path><path d="M247,356.11s-.27,0-.6-.32a2.82,2.82,0,0,1-.86-1.42,2.76,2.76,0,0,1,.11-1.66c.16-.4.36-.6.39-.57a5.51,5.51,0,0,0-.12,2.14A5.64,5.64,0,0,0,247,356.11Z" style="fill: rgb(38, 50, 56); transform-origin: 246.23px 354.124px;" id="elm58jq9skm9" class="animable"></path><path d="M249.54,356.11s-.28,0-.61-.32a2.78,2.78,0,0,1-.85-1.42,2.69,2.69,0,0,1,.11-1.66c.16-.4.34-.6.39-.57a5.51,5.51,0,0,0-.12,2.14A5.31,5.31,0,0,0,249.54,356.11Z" style="fill: rgb(38, 50, 56); transform-origin: 248.769px 354.124px;" id="elgcg09hzfd8p" class="animable"></path><path d="M252.09,356.11s-.28,0-.61-.32a2.73,2.73,0,0,1-.86-1.42,2.84,2.84,0,0,1,.11-1.66c.16-.4.35-.6.39-.57a3.66,3.66,0,0,0,1,4Z" style="fill: rgb(38, 50, 56); transform-origin: 251.332px 354.138px;" id="elnst29pu74d" class="animable"></path><path d="M231.31,360.24a5.5,5.5,0,0,0-.5-4.05s.24.11.49.45a3.35,3.35,0,0,1,.54,1.5,3.4,3.4,0,0,1-.17,1.58C231.52,360.06,231.36,360.24,231.31,360.24Z" style="fill: rgb(38, 50, 56); transform-origin: 231.339px 358.215px;" id="eljgl6qkznp5" class="animable"></path><path d="M233.64,360.24a9.53,9.53,0,0,0,.14-2.07,10,10,0,0,0-.64-2s.24.11.48.45a3.37,3.37,0,0,1,.55,1.5,3.4,3.4,0,0,1-.17,1.58C233.85,360.06,233.7,360.24,233.64,360.24Z" style="fill: rgb(38, 50, 56); transform-origin: 233.669px 358.205px;" id="elnknjlstsz1" class="animable"></path><path d="M236,360.24a9.53,9.53,0,0,0,.14-2.07,9.34,9.34,0,0,0-.64-2,1.37,1.37,0,0,1,.48.45,3.25,3.25,0,0,1,.55,1.5,3.4,3.4,0,0,1-.17,1.58C236.18,360.06,236,360.24,236,360.24Z" style="fill: rgb(38, 50, 56); transform-origin: 236.029px 358.205px;" id="elojleh75itke" class="animable"></path><path d="M238.29,360.24a10.2,10.2,0,0,0,.15-2.07,11.43,11.43,0,0,0-.64-2,1.37,1.37,0,0,1,.48.45,3.42,3.42,0,0,1,.37,3.06C238.5,360.06,238.34,360.24,238.29,360.24Z" style="fill: rgb(38, 50, 56); transform-origin: 238.327px 358.205px;" id="elamf78ze64pa" class="animable"></path><path d="M240.62,360.24a9.53,9.53,0,0,0,.14-2.07,10.64,10.64,0,0,0-.64-2,1.37,1.37,0,0,1,.48.45,3.14,3.14,0,0,1,.55,1.5,3.27,3.27,0,0,1-.18,1.58C240.83,360.06,240.67,360.24,240.62,360.24Z" style="fill: rgb(38, 50, 56); transform-origin: 240.649px 358.205px;" id="elyoyt2d76nlg" class="animable"></path><path d="M243,360.24a10.2,10.2,0,0,0,.14-2.07,9.37,9.37,0,0,0-.65-2s.25.11.49.45a3.42,3.42,0,0,1,.37,3.06C243.16,360.06,243,360.24,243,360.24Z" style="fill: rgb(38, 50, 56); transform-origin: 243.022px 358.205px;" id="el320oy73fbjj" class="animable"></path><path d="M245.28,360.24a11,11,0,0,0,.14-2.07,10,10,0,0,0-.65-2s.25.11.48.45a3.4,3.4,0,0,1,.38,3.06A1.12,1.12,0,0,1,245.28,360.24Z" style="fill: rgb(38, 50, 56); transform-origin: 245.301px 358.205px;" id="el7bqdo954xp8" class="animable"></path><path d="M247.6,360.24a10.2,10.2,0,0,0,.15-2.07,10.67,10.67,0,0,0-.65-2,1.28,1.28,0,0,1,.48.45,3.4,3.4,0,0,1,.38,3.06C247.81,360.06,247.64,360.24,247.6,360.24Z" style="fill: rgb(38, 50, 56); transform-origin: 247.631px 358.205px;" id="eluwk41ya0udd" class="animable"></path><path d="M249.92,360.24a5.39,5.39,0,0,0-.49-4.05,1.14,1.14,0,0,1,.48.45,3.37,3.37,0,0,1,.55,1.5,3.27,3.27,0,0,1-.18,1.58C250.13,360.06,250,360.24,249.92,360.24Z" style="fill: rgb(38, 50, 56); transform-origin: 249.959px 358.215px;" id="ela71o93x644" class="animable"></path><path d="M255.84,343.82s-6.85.07-15.31.07-15.32,0-15.32-.07,6.86-.06,15.32-.06S255.84,343.79,255.84,343.82Z" style="fill: rgb(38, 50, 56); transform-origin: 240.525px 343.825px;" id="elxy13jx65koa" class="animable"></path><rect x="135.72" y="336.83" width="18.4" height="33.24" style="fill: rgb(174, 116, 97); transform-origin: 144.92px 353.45px;" id="el78folee017o" class="animable"></rect><path d="M155.1,349.59l-19.91,2.54a2.15,2.15,0,0,1-2.39-1.86h0a2.13,2.13,0,0,1,1.84-2.38h0l19.91-2.54a2.14,2.14,0,0,1,2.38,1.85h0A2.14,2.14,0,0,1,155.1,349.59Z" style="fill: rgb(69, 90, 100); transform-origin: 144.865px 348.74px;" id="el0reumin33mmg" class="animable"></path><path d="M137.79,351.88s-.29-.06-.61-.37a3,3,0,0,1-.76-3.24c.17-.41.37-.62.41-.59a3.91,3.91,0,0,0,1,4.2Z" style="fill: rgb(38, 50, 56); transform-origin: 137.03px 349.779px;" id="elj8ur43gpszk" class="animable"></path><path d="M135.68,351.93c0,.05-.28-.05-.6-.33a3,3,0,0,1-.86-1.45,2.76,2.76,0,0,1,.12-1.68c.16-.4.36-.6.4-.57a5.43,5.43,0,0,0-.14,2.16A5.93,5.93,0,0,0,135.68,351.93Z" style="fill: rgb(38, 50, 56); transform-origin: 134.911px 349.92px;" id="elx4tmnvep5hs" class="animable"></path><path d="M139.83,351.49s-.28-.06-.6-.37a2.94,2.94,0,0,1-.85-1.5,3,3,0,0,1,.12-1.73c.17-.42.37-.62.41-.59a5.69,5.69,0,0,0-.15,2.25A5.94,5.94,0,0,0,139.83,351.49Z" style="fill: rgb(38, 50, 56); transform-origin: 139.068px 349.394px;" id="elretdl008u9" class="animable"></path><path d="M141.88,351.23s-.3-.06-.62-.36a3,3,0,0,1-.75-3.25c.17-.41.37-.61.4-.59a6.09,6.09,0,0,0-.15,2.25A5.67,5.67,0,0,0,141.88,351.23Z" style="fill: rgb(38, 50, 56); transform-origin: 141.097px 349.129px;" id="elrsh57joe54" class="animable"></path><path d="M144,351s-.28-.06-.61-.37a3.05,3.05,0,0,1-.85-1.5,3.09,3.09,0,0,1,.13-1.73c.17-.42.36-.62.41-.59a5.69,5.69,0,0,0-.15,2.25A5.76,5.76,0,0,0,144,351Z" style="fill: rgb(38, 50, 56); transform-origin: 143.236px 348.904px;" id="elpvwscljild" class="animable"></path><path d="M146,350.71s-.28-.06-.61-.37a3,3,0,0,1-.72-3.23c.17-.42.36-.62.4-.6a6.11,6.11,0,0,0-.15,2.25A5.74,5.74,0,0,0,146,350.71Z" style="fill: rgb(38, 50, 56); transform-origin: 145.236px 348.609px;" id="els3x8pasq97d" class="animable"></path><path d="M148,350.48a1.47,1.47,0,0,1-.62-.36,3,3,0,0,1-.72-3.23c.17-.42.36-.62.41-.6a4,4,0,0,0,.93,4.21Z" style="fill: rgb(38, 50, 56); transform-origin: 147.231px 348.394px;" id="el4rwwim1o214" class="animable"></path><path d="M150.07,350.27s-.28-.06-.61-.37a3,3,0,0,1-.84-1.5,2.92,2.92,0,0,1,.13-1.73c.16-.41.36-.62.39-.59a6.09,6.09,0,0,0-.15,2.25A6,6,0,0,0,150.07,350.27Z" style="fill: rgb(38, 50, 56); transform-origin: 149.308px 348.174px;" id="elx5vz8cw4fb" class="animable"></path><path d="M152,350s-.29-.06-.62-.37a3,3,0,0,1-.71-3.24c.16-.41.36-.61.4-.59a6.11,6.11,0,0,0-.15,2.25A5.93,5.93,0,0,0,152,350Z" style="fill: rgb(38, 50, 56); transform-origin: 151.233px 347.899px;" id="elp58w4b6juv" class="animable"></path><path d="M153.92,349.65c0,.05-.28,0-.61-.34a2.92,2.92,0,0,1-.75-3.17c.17-.41.36-.6.4-.58a5.53,5.53,0,0,0-.14,2.18A5.88,5.88,0,0,0,153.92,349.65Z" style="fill: rgb(38, 50, 56); transform-origin: 153.147px 347.613px;" id="elynnpvilczu" class="animable"></path><path d="M155.85,349.34c0,.05-.29,0-.61-.33a2.89,2.89,0,0,1-.86-1.43,2.73,2.73,0,0,1,.12-1.67c.16-.4.36-.58.39-.56a5.31,5.31,0,0,0-.13,2.14A5.58,5.58,0,0,0,155.85,349.34Z" style="fill: rgb(38, 50, 56); transform-origin: 155.076px 347.353px;" id="eld6347e5i8oi" class="animable"></path><path d="M131.49,329.7h28.07a7.13,7.13,0,0,1,7.13,7.13h0a7.13,7.13,0,0,1-7.13,7.12H131.49a7.12,7.12,0,0,1-7.12-7.12h0A7.13,7.13,0,0,1,131.49,329.7Z" style="fill: rgb(174, 116, 97); transform-origin: 145.53px 336.825px;" id="elysxvxk835gl" class="animable"></path><path d="M155,356.29H134.89a2.15,2.15,0,0,1-2.14-2.14h0a2.13,2.13,0,0,1,2.14-2.13H155a2.13,2.13,0,0,1,2.14,2.13h0A2.14,2.14,0,0,1,155,356.29Z" style="fill: rgb(69, 90, 100); transform-origin: 144.945px 354.155px;" id="el0qwuh4ljspof" class="animable"></path><path d="M155,360.39H134.89a2.15,2.15,0,0,1-2.14-2.14h0a2.14,2.14,0,0,1,2.14-2.14H155a2.14,2.14,0,0,1,2.14,2.14h0A2.14,2.14,0,0,1,155,360.39Z" style="fill: rgb(69, 90, 100); transform-origin: 144.945px 358.25px;" id="elo33gbtv2vbc" class="animable"></path><path d="M155.47,356.24c0,.1-4.7.19-10.51.19s-10.51-.09-10.51-.19,4.72-.2,10.51-.2S155.47,356.12,155.47,356.24Z" style="fill: rgb(38, 50, 56); transform-origin: 144.96px 356.235px;" id="elq6s1avr931t" class="animable"></path><path d="M155.41,352c0,.11-4.79.19-10.69.19S134,352.1,134,352s4.78-.2,10.68-.2S155.41,351.89,155.41,352Z" style="fill: rgb(38, 50, 56); transform-origin: 144.705px 351.995px;" id="elksusiwk97vn" class="animable"></path><path d="M136.49,356.23s-.28-.06-.61-.36a3.09,3.09,0,0,1-.85-1.5,2.9,2.9,0,0,1,.08-1.7c.15-.42.33-.62.38-.6a5.88,5.88,0,0,0-.08,2.21A6.32,6.32,0,0,0,136.49,356.23Z" style="fill: rgb(38, 50, 56); transform-origin: 135.715px 354.149px;" id="elsbon2s7p26p" class="animable"></path><path d="M138.57,356.11s-.28,0-.61-.32a2.81,2.81,0,0,1-.75-3.08c.17-.4.36-.6.4-.57a5.32,5.32,0,0,0-.12,2.14A5.47,5.47,0,0,0,138.57,356.11Z" style="fill: rgb(38, 50, 56); transform-origin: 137.8px 354.124px;" id="elhip9qt59ysv" class="animable"></path><path d="M141.12,356.11s-.29,0-.61-.32a2.77,2.77,0,0,1-.75-3.08c.16-.4.35-.6.39-.57a3.67,3.67,0,0,0,1,4Z" style="fill: rgb(38, 50, 56); transform-origin: 140.361px 354.139px;" id="el4lw305soxqs" class="animable"></path><path d="M143.66,356.11s-.28,0-.61-.32a2.81,2.81,0,0,1-.75-3.08c.17-.4.36-.6.39-.57a5.92,5.92,0,0,0-.12,2.14A5.4,5.4,0,0,0,143.66,356.11Z" style="fill: rgb(38, 50, 56); transform-origin: 142.89px 354.124px;" id="eln33p1ggcr98" class="animable"></path><path d="M146.21,356.11s-.29,0-.61-.32a2.79,2.79,0,0,1-.75-3.08c.16-.4.35-.6.39-.57a5.51,5.51,0,0,0-.12,2.14A5.1,5.1,0,0,0,146.21,356.11Z" style="fill: rgb(38, 50, 56); transform-origin: 145.438px 354.124px;" id="elwu98mg6ef7c" class="animable"></path><path d="M148.75,356.11s-.28,0-.6-.32a2.73,2.73,0,0,1-.86-1.42,2.77,2.77,0,0,1,.1-1.66c.16-.4.36-.6.39-.57a3.66,3.66,0,0,0,1,4Z" style="fill: rgb(38, 50, 56); transform-origin: 147.994px 354.138px;" id="el6qzxh2asteh" class="animable"></path><path d="M151.29,356.11s-.28,0-.6-.32a2.76,2.76,0,0,1-.75-3.08c.16-.4.35-.6.39-.57a3.68,3.68,0,0,0,1,4Z" style="fill: rgb(38, 50, 56); transform-origin: 150.54px 354.139px;" id="elcpiiheq63j6" class="animable"></path><path d="M153.84,356.11s-.28,0-.61-.32a2.8,2.8,0,0,1-.86-1.42,2.84,2.84,0,0,1,.11-1.66c.16-.4.35-.6.4-.57a5.15,5.15,0,0,0-.12,2.14A5.31,5.31,0,0,0,153.84,356.11Z" style="fill: rgb(38, 50, 56); transform-origin: 153.067px 354.124px;" id="elpwa3wgtmeyl" class="animable"></path><path d="M156.38,356.11s-.28,0-.61-.32a2.78,2.78,0,0,1-.85-1.42,2.69,2.69,0,0,1,.11-1.66c.16-.4.35-.6.39-.57a3.68,3.68,0,0,0,1,4Z" style="fill: rgb(38, 50, 56); transform-origin: 155.629px 354.138px;" id="elz6hjvo9jzlk" class="animable"></path><path d="M135.61,360.24a5.5,5.5,0,0,0-.5-4.05s.24.11.48.45a3.37,3.37,0,0,1,.55,1.5,3.4,3.4,0,0,1-.17,1.58A1.11,1.11,0,0,1,135.61,360.24Z" style="fill: rgb(38, 50, 56); transform-origin: 135.639px 358.215px;" id="el2d094dxykwy" class="animable"></path><path d="M137.93,360.24a9.53,9.53,0,0,0,.15-2.07,10.64,10.64,0,0,0-.64-2s.24.11.48.45a3.37,3.37,0,0,1,.55,1.5,3.55,3.55,0,0,1-.18,1.58C138.14,360.06,138,360.24,137.93,360.24Z" style="fill: rgb(38, 50, 56); transform-origin: 137.966px 358.205px;" id="elzhvyxxzzvuh" class="animable"></path><path d="M140.25,360.24a9.53,9.53,0,0,0,.14-2.07,10,10,0,0,0-.64-2,1.37,1.37,0,0,1,.48.45,3.37,3.37,0,0,1,.55,1.5,3.4,3.4,0,0,1-.17,1.58C140.47,360.06,140.31,360.24,140.25,360.24Z" style="fill: rgb(38, 50, 56); transform-origin: 140.279px 358.205px;" id="el3y5ls495j4x" class="animable"></path><path d="M142.59,360.24a9.53,9.53,0,0,0,.14-2.07,10.64,10.64,0,0,0-.64-2,1.37,1.37,0,0,1,.48.45,3.39,3.39,0,0,1,.37,3.06C142.8,360.06,142.63,360.24,142.59,360.24Z" style="fill: rgb(38, 50, 56); transform-origin: 142.619px 358.205px;" id="elmlu0nkctd6" class="animable"></path><path d="M144.92,360.24a11,11,0,0,0,.14-2.07,10.64,10.64,0,0,0-.64-2,1.31,1.31,0,0,1,.47.45,3.42,3.42,0,0,1,.38,3.08A1.05,1.05,0,0,1,144.92,360.24Z" style="fill: rgb(38, 50, 56); transform-origin: 144.948px 358.205px;" id="elnp8g0h0ex1b" class="animable"></path><path d="M147.24,360.24a10.2,10.2,0,0,0,.15-2.07,10,10,0,0,0-.65-2s.25.11.48.45a3.4,3.4,0,0,1,.38,3.06C147.45,360.06,147.28,360.24,147.24,360.24Z" style="fill: rgb(38, 50, 56); transform-origin: 147.271px 358.205px;" id="el4xbl1310iit" class="animable"></path><path d="M149.57,360.24a9.53,9.53,0,0,0,.14-2.07,10,10,0,0,0-.64-2s.25.11.48.45a3.36,3.36,0,0,1,.37,3.06C149.78,360.06,149.61,360.24,149.57,360.24Z" style="fill: rgb(38, 50, 56); transform-origin: 149.6px 358.205px;" id="el3twswgnp3gw" class="animable"></path><path d="M151.9,360.24a10.2,10.2,0,0,0,.14-2.07,10,10,0,0,0-.64-2,1.37,1.37,0,0,1,.48.45,3.36,3.36,0,0,1,.37,3.06C152.1,360.06,151.94,360.24,151.9,360.24Z" style="fill: rgb(38, 50, 56); transform-origin: 151.93px 358.205px;" id="el826ed1czvry" class="animable"></path><path d="M154.22,360.24a5.4,5.4,0,0,0-.5-4.05s.25.11.48.45a3.25,3.25,0,0,1,.55,1.5,3.15,3.15,0,0,1-.17,1.58A1.11,1.11,0,0,1,154.22,360.24Z" style="fill: rgb(38, 50, 56); transform-origin: 154.252px 358.215px;" id="elae78v4l0qsh" class="animable"></path><path d="M160.14,343.82s-6.86.07-15.31.07-15.32,0-15.32-.07,6.86-.06,15.32-.06S160.14,343.79,160.14,343.82Z" style="fill: rgb(38, 50, 56); transform-origin: 144.825px 343.825px;" id="elis5oy8nk9e" class="animable"></path><rect x="40.02" y="336.83" width="18.4" height="33.24" style="fill: rgb(174, 116, 97); transform-origin: 49.22px 353.45px;" id="el1fdxvac6xa8" class="animable"></rect><path d="M59.39,349.59l-19.91,2.54a2.14,2.14,0,0,1-2.38-1.86h0a2.12,2.12,0,0,1,1.84-2.38h0l19.91-2.54a2.15,2.15,0,0,1,2.39,1.85h0A2.14,2.14,0,0,1,59.39,349.59Z" style="fill: rgb(69, 90, 100); transform-origin: 49.1694px 348.74px;" id="el3eymut52tbe" class="animable"></path><path d="M42.09,351.88s-.29-.06-.62-.37a3,3,0,0,1-.75-3.24c.17-.41.36-.62.41-.59a5.68,5.68,0,0,0-.15,2.25A5.49,5.49,0,0,0,42.09,351.88Z" style="fill: rgb(38, 50, 56); transform-origin: 41.3088px 349.779px;" id="elf2x03ap8opb" class="animable"></path><path d="M40,351.93c0,.05-.28-.05-.6-.33a2.94,2.94,0,0,1-.87-1.45,2.83,2.83,0,0,1,.12-1.68c.17-.4.36-.6.41-.57a5.09,5.09,0,0,0-.14,2.16A5.93,5.93,0,0,0,40,351.93Z" style="fill: rgb(38, 50, 56); transform-origin: 39.2275px 349.92px;" id="elpu4zkaj7gqe" class="animable"></path><path d="M44.13,351.49s-.29-.06-.61-.37a3,3,0,0,1-.85-1.5,3.09,3.09,0,0,1,.13-1.73c.17-.42.36-.62.41-.59a5.69,5.69,0,0,0-.15,2.25A5.76,5.76,0,0,0,44.13,351.49Z" style="fill: rgb(38, 50, 56); transform-origin: 43.3662px 349.394px;" id="elwnuo0mdyfj" class="animable"></path><path d="M46.17,351.23s-.29-.06-.61-.36a3,3,0,0,1-.75-3.25c.17-.41.36-.61.4-.59a6.09,6.09,0,0,0-.15,2.25A5.81,5.81,0,0,0,46.17,351.23Z" style="fill: rgb(38, 50, 56); transform-origin: 45.3924px 349.129px;" id="elhebvr3l9mo" class="animable"></path><path d="M48.3,351s-.29-.06-.61-.37a3.05,3.05,0,0,1-.85-1.5,3,3,0,0,1,.13-1.73c.16-.42.36-.62.4-.59a5.69,5.69,0,0,0-.15,2.25A6,6,0,0,0,48.3,351Z" style="fill: rgb(38, 50, 56); transform-origin: 47.5344px 348.904px;" id="elvqxgjhzmibc" class="animable"></path><path d="M50.28,350.71s-.29-.06-.62-.37a3,3,0,0,1-.84-1.5,3,3,0,0,1,.13-1.73c.17-.42.36-.62.4-.6a4,4,0,0,0,.93,4.2Z" style="fill: rgb(38, 50, 56); transform-origin: 49.5144px 348.609px;" id="elf4yus8n7phk" class="animable"></path><path d="M52.28,350.48a1.42,1.42,0,0,1-.62-.36,3,3,0,0,1-.85-1.51,3,3,0,0,1,.13-1.72c.17-.42.36-.62.41-.6a4,4,0,0,0,.93,4.21Z" style="fill: rgb(38, 50, 56); transform-origin: 51.5101px 348.394px;" id="elp69oriar2xj" class="animable"></path><path d="M54.37,350.27s-.28-.06-.61-.37a3,3,0,0,1-.85-1.5,3.09,3.09,0,0,1,.13-1.73c.17-.41.36-.62.4-.59a6.09,6.09,0,0,0-.15,2.25A5.79,5.79,0,0,0,54.37,350.27Z" style="fill: rgb(38, 50, 56); transform-origin: 53.6062px 348.174px;" id="elk70udn4xov" class="animable"></path><path d="M56.29,350s-.28-.06-.61-.37a3,3,0,0,1-.84-1.5,3,3,0,0,1,.12-1.74c.17-.41.36-.61.4-.59a5.89,5.89,0,0,0-.14,2.25A6.09,6.09,0,0,0,56.29,350Z" style="fill: rgb(38, 50, 56); transform-origin: 55.5268px 347.899px;" id="ela4opypb5x2s" class="animable"></path><path d="M58.22,349.65c0,.05-.28,0-.61-.34a2.9,2.9,0,0,1-.75-3.17c.16-.41.36-.6.39-.58a5.53,5.53,0,0,0-.14,2.18A5.91,5.91,0,0,0,58.22,349.65Z" style="fill: rgb(38, 50, 56); transform-origin: 57.445px 347.613px;" id="elfvcrb3czh8g" class="animable"></path><path d="M60.14,349.34c0,.05-.28,0-.6-.33a2.76,2.76,0,0,1-.86-1.43,2.72,2.72,0,0,1,.11-1.67c.17-.4.36-.58.4-.56a5.14,5.14,0,0,0-.13,2.14A5.73,5.73,0,0,0,60.14,349.34Z" style="fill: rgb(38, 50, 56); transform-origin: 59.3687px 347.353px;" id="elnczyfow2mie" class="animable"></path><path d="M35.79,329.7H63.86A7.13,7.13,0,0,1,71,336.83h0A7.13,7.13,0,0,1,63.86,344H35.79a7.13,7.13,0,0,1-7.13-7.12h0A7.13,7.13,0,0,1,35.79,329.7Z" style="fill: rgb(174, 116, 97); transform-origin: 49.83px 336.85px;" id="elltykpyq6gue" class="animable"></path><path d="M59.25,356.29H39.18a2.14,2.14,0,0,1-2.13-2.14h0A2.13,2.13,0,0,1,39.18,352H59.25a2.13,2.13,0,0,1,2.14,2.13h0A2.15,2.15,0,0,1,59.25,356.29Z" style="fill: rgb(69, 90, 100); transform-origin: 49.22px 354.145px;" id="el2hm9msgbvgr" class="animable"></path><path d="M59.25,360.39H39.18a2.14,2.14,0,0,1-2.13-2.14h0a2.13,2.13,0,0,1,2.13-2.14H59.25a2.14,2.14,0,0,1,2.14,2.14h0A2.15,2.15,0,0,1,59.25,360.39Z" style="fill: rgb(69, 90, 100); transform-origin: 49.22px 358.25px;" id="elvnyhskdrkj" class="animable"></path><path d="M59.77,356.24c0,.1-4.71.19-10.51.19s-10.51-.09-10.51-.19,4.71-.2,10.51-.2S59.77,356.12,59.77,356.24Z" style="fill: rgb(38, 50, 56); transform-origin: 49.26px 356.235px;" id="el0t6qge18fg2g" class="animable"></path><path d="M59.7,352c0,.11-4.79.19-10.68.19s-10.69-.08-10.69-.19,4.79-.2,10.69-.2S59.7,351.89,59.7,352Z" style="fill: rgb(38, 50, 56); transform-origin: 49.015px 351.995px;" id="elr9l2fu4x6o" class="animable"></path><path d="M40.79,356.23s-.29-.06-.61-.36a3.1,3.1,0,0,1-.86-1.5,2.9,2.9,0,0,1,.09-1.7c.15-.42.33-.62.37-.6a4.18,4.18,0,0,0,1,4.16Z" style="fill: rgb(38, 50, 56); transform-origin: 40.0117px 354.149px;" id="el4nfvbyeflgj" class="animable"></path><path d="M42.87,356.11s-.29,0-.61-.32a2.79,2.79,0,0,1-.75-3.08c.16-.4.35-.6.4-.57a5.15,5.15,0,0,0-.12,2.14A5.31,5.31,0,0,0,42.87,356.11Z" style="fill: rgb(38, 50, 56); transform-origin: 42.0979px 354.124px;" id="eluifa8pv33kn" class="animable"></path><path d="M45.41,356.11s-.28,0-.6-.32a2.77,2.77,0,0,1-.75-3.08c.16-.4.35-.6.39-.57a3.66,3.66,0,0,0,1,4Z" style="fill: rgb(38, 50, 56); transform-origin: 44.6611px 354.139px;" id="elx66ystny0y" class="animable"></path><path d="M48,356.11s-.29,0-.61-.32a2.81,2.81,0,0,1-.75-3.08c.17-.4.35-.6.39-.57a5.51,5.51,0,0,0-.12,2.14A5.1,5.1,0,0,0,48,356.11Z" style="fill: rgb(38, 50, 56); transform-origin: 47.2297px 354.124px;" id="el43xr2wfeim2" class="animable"></path><path d="M50.5,356.11s-.28,0-.6-.32a2.77,2.77,0,0,1-.75-3.08c.15-.4.35-.6.39-.57a5.15,5.15,0,0,0-.12,2.14A5.22,5.22,0,0,0,50.5,356.11Z" style="fill: rgb(38, 50, 56); transform-origin: 49.7311px 354.124px;" id="el3y14sm77ok8" class="animable"></path><path d="M53,356.11s-.28,0-.6-.32a2.81,2.81,0,0,1-.75-3.08c.16-.4.35-.6.39-.57a3.68,3.68,0,0,0,1,4Z" style="fill: rgb(38, 50, 56); transform-origin: 52.2547px 354.139px;" id="el88ohwv4wq7i" class="animable"></path><path d="M55.59,356.11s-.28,0-.6-.32a2.72,2.72,0,0,1-.75-3.08c.15-.4.35-.6.39-.57a5.15,5.15,0,0,0-.12,2.14A5.31,5.31,0,0,0,55.59,356.11Z" style="fill: rgb(38, 50, 56); transform-origin: 54.8164px 354.124px;" id="eldj331imoyll" class="animable"></path><path d="M58.13,356.11s-.28,0-.61-.32a2.78,2.78,0,0,1-.85-1.42,2.69,2.69,0,0,1,.11-1.66c.16-.4.35-.6.39-.57a3.68,3.68,0,0,0,1,4Z" style="fill: rgb(38, 50, 56); transform-origin: 57.3788px 354.138px;" id="elwwq6ac8kb0m" class="animable"></path><path d="M60.68,356.11s-.28,0-.61-.32a2.87,2.87,0,0,1-.86-1.42,2.76,2.76,0,0,1,.12-1.66c.15-.4.34-.6.39-.57a5.15,5.15,0,0,0-.12,2.14A5.31,5.31,0,0,0,60.68,356.11Z" style="fill: rgb(38, 50, 56); transform-origin: 59.9074px 354.124px;" id="elt2zw2uf4o9" class="animable"></path><path d="M39.9,360.24a5.5,5.5,0,0,0-.49-4.05s.24.11.48.45a3.37,3.37,0,0,1,.55,1.5,3.55,3.55,0,0,1-.18,1.58C40.11,360.06,40,360.24,39.9,360.24Z" style="fill: rgb(38, 50, 56); transform-origin: 39.9362px 358.215px;" id="eljyhkytd4sc9" class="animable"></path><path d="M42.23,360.24a9.53,9.53,0,0,0,.14-2.07,9.92,9.92,0,0,0-.63-2,1.14,1.14,0,0,1,.48.45,3.24,3.24,0,0,1,.54,1.5,3.4,3.4,0,0,1-.17,1.58C42.44,360.06,42.29,360.24,42.23,360.24Z" style="fill: rgb(38, 50, 56); transform-origin: 42.2641px 358.205px;" id="elsppbpeau76" class="animable"></path><path d="M44.54,360.24a9.53,9.53,0,0,0,.15-2.07,10.64,10.64,0,0,0-.64-2,1.37,1.37,0,0,1,.48.45,3.37,3.37,0,0,1,.55,1.5,3.55,3.55,0,0,1-.18,1.58C44.77,360.06,44.6,360.24,44.54,360.24Z" style="fill: rgb(38, 50, 56); transform-origin: 44.5762px 358.205px;" id="elmfpw8mz568" class="animable"></path><path d="M46.89,360.24a9.53,9.53,0,0,0,.14-2.07,10.64,10.64,0,0,0-.64-2,1.37,1.37,0,0,1,.48.45,3.42,3.42,0,0,1,.37,3.06C47.1,360.06,46.93,360.24,46.89,360.24Z" style="fill: rgb(38, 50, 56); transform-origin: 46.917px 358.205px;" id="el2615qfsqgly" class="animable"></path><path d="M49.21,360.24a10.2,10.2,0,0,0,.15-2.07,11.43,11.43,0,0,0-.64-2,1.31,1.31,0,0,1,.47.45,3.27,3.27,0,0,1,.56,1.5,3.53,3.53,0,0,1-.18,1.58C49.42,360.06,49.26,360.24,49.21,360.24Z" style="fill: rgb(38, 50, 56); transform-origin: 49.2464px 358.205px;" id="el1piqukdcwh7" class="animable"></path><path d="M51.54,360.24a9.53,9.53,0,0,0,.14-2.07,10,10,0,0,0-.64-2s.25.11.48.45a3.36,3.36,0,0,1,.37,3.06C51.75,360.06,51.58,360.24,51.54,360.24Z" style="fill: rgb(38, 50, 56); transform-origin: 51.5704px 358.205px;" id="elr4i34twgy5a" class="animable"></path><path d="M53.87,360.24a10.2,10.2,0,0,0,.14-2.07,10,10,0,0,0-.64-2,1.14,1.14,0,0,1,.48.45,3.42,3.42,0,0,1,.37,3.06C54.08,360.06,53.91,360.24,53.87,360.24Z" style="fill: rgb(38, 50, 56); transform-origin: 53.897px 358.205px;" id="el3q2x5opvxs" class="animable"></path><path d="M56.2,360.24a11,11,0,0,0,.14-2.07,10,10,0,0,0-.65-2,1.28,1.28,0,0,1,.48.45,3.4,3.4,0,0,1,.38,3.06A1.21,1.21,0,0,1,56.2,360.24Z" style="fill: rgb(38, 50, 56); transform-origin: 56.2214px 358.205px;" id="elaaeqr4kkm4e" class="animable"></path><path d="M58.52,360.24a5.4,5.4,0,0,0-.5-4.05s.25.11.48.45a3.5,3.5,0,0,1,.38,3.08A1.11,1.11,0,0,1,58.52,360.24Z" style="fill: rgb(38, 50, 56); transform-origin: 58.5482px 358.215px;" id="elxmb83bhufq" class="animable"></path><path d="M64.44,343.82s-6.86.07-15.32.07-15.31,0-15.31-.07,6.85-.06,15.31-.06S64.44,343.79,64.44,343.82Z" style="fill: rgb(38, 50, 56); transform-origin: 49.125px 343.825px;" id="ela77l6403qn7" class="animable"></path><rect x="414.37" y="336.83" width="18.4" height="33.24" style="fill: rgb(174, 116, 97); transform-origin: 423.57px 353.45px;" id="elwlmkrvjibui" class="animable"></rect><path d="M433.75,349.59l-19.91,2.54a2.15,2.15,0,0,1-2.39-1.86h0a2.13,2.13,0,0,1,1.85-2.38h0l19.91-2.54a2.15,2.15,0,0,1,2.39,1.85h0A2.14,2.14,0,0,1,433.75,349.59Z" style="fill: rgb(69, 90, 100); transform-origin: 423.525px 348.74px;" id="eliqbb3i03lz8" class="animable"></path><path d="M416.45,351.88s-.3-.06-.62-.37a3,3,0,0,1-.75-3.24c.17-.41.36-.62.41-.59a5.68,5.68,0,0,0-.15,2.25A5.49,5.49,0,0,0,416.45,351.88Z" style="fill: rgb(38, 50, 56); transform-origin: 415.669px 349.779px;" id="elrvjzur5b6v" class="animable"></path><path d="M414.34,351.93c0,.05-.28-.05-.6-.33a2.94,2.94,0,0,1-.87-1.45,2.83,2.83,0,0,1,.12-1.68c.17-.4.36-.6.41-.57a5.09,5.09,0,0,0-.14,2.16A5.93,5.93,0,0,0,414.34,351.93Z" style="fill: rgb(38, 50, 56); transform-origin: 413.567px 349.92px;" id="elrduzk8dp5" class="animable"></path><path d="M418.49,351.49s-.29-.06-.61-.37a3,3,0,0,1-.72-3.23c.17-.42.36-.62.41-.59a5.51,5.51,0,0,0-.15,2.25A5.76,5.76,0,0,0,418.49,351.49Z" style="fill: rgb(38, 50, 56); transform-origin: 417.726px 349.394px;" id="el01m55xc6hm0g" class="animable"></path><path d="M420.53,351.23s-.29-.06-.61-.36a3,3,0,0,1-.76-3.25c.18-.41.37-.61.41-.59a5.89,5.89,0,0,0-.15,2.25A5.81,5.81,0,0,0,420.53,351.23Z" style="fill: rgb(38, 50, 56); transform-origin: 419.749px 349.129px;" id="elh519303h5l" class="animable"></path><path d="M422.66,351s-.29-.06-.61-.37a3,3,0,0,1-.72-3.23c.16-.42.36-.62.4-.59a5.69,5.69,0,0,0-.15,2.25A5.79,5.79,0,0,0,422.66,351Z" style="fill: rgb(38, 50, 56); transform-origin: 421.896px 348.904px;" id="elay4k5altmdb" class="animable"></path><path d="M424.64,350.71s-.29-.06-.62-.37a3.05,3.05,0,0,1-.85-1.5,3,3,0,0,1,.14-1.73c.16-.42.36-.62.4-.6a4,4,0,0,0,.93,4.2Z" style="fill: rgb(38, 50, 56); transform-origin: 423.871px 348.609px;" id="eldn54dsm9goc" class="animable"></path><path d="M426.64,350.48a1.42,1.42,0,0,1-.62-.36,3,3,0,0,1-.72-3.23c.16-.42.36-.62.4-.6a4,4,0,0,0,.94,4.21Z" style="fill: rgb(38, 50, 56); transform-origin: 425.871px 348.394px;" id="elgrdt96cgcrq" class="animable"></path><path d="M428.73,350.27s-.29-.06-.62-.37a3,3,0,0,1-.84-1.5,3.09,3.09,0,0,1,.13-1.73c.17-.41.36-.62.4-.59a5.89,5.89,0,0,0-.15,2.25A5.79,5.79,0,0,0,428.73,350.27Z" style="fill: rgb(38, 50, 56); transform-origin: 427.966px 348.174px;" id="elhjz222psbiw" class="animable"></path><path d="M430.65,350s-.28-.06-.61-.37a3,3,0,0,1-.84-1.5,3,3,0,0,1,.12-1.74c.17-.41.36-.61.4-.59a4,4,0,0,0,.93,4.2Z" style="fill: rgb(38, 50, 56); transform-origin: 429.887px 347.899px;" id="el9wqwxfmt2e" class="animable"></path><path d="M432.57,349.65c0,.05-.27,0-.6-.34a2.88,2.88,0,0,1-.75-3.17c.16-.41.36-.6.39-.58a5.53,5.53,0,0,0-.14,2.18A6.07,6.07,0,0,0,432.57,349.65Z" style="fill: rgb(38, 50, 56); transform-origin: 431.798px 347.613px;" id="elp00y3pem4z" class="animable"></path><path d="M434.5,349.34c0,.05-.28,0-.6-.33a2.76,2.76,0,0,1-.86-1.43,2.72,2.72,0,0,1,.11-1.67c.17-.4.36-.58.4-.56a5.14,5.14,0,0,0-.13,2.14A5.73,5.73,0,0,0,434.5,349.34Z" style="fill: rgb(38, 50, 56); transform-origin: 433.729px 347.353px;" id="elkc0ywl29s0o" class="animable"></path><path d="M410.15,329.7h28.07a7.13,7.13,0,0,1,7.13,7.13h0a7.13,7.13,0,0,1-7.13,7.12H410.15a7.13,7.13,0,0,1-7.13-7.12h0A7.13,7.13,0,0,1,410.15,329.7Z" style="fill: rgb(174, 116, 97); transform-origin: 424.185px 336.825px;" id="elborbq39qa3d" class="animable"></path><path d="M433.61,356.29H413.54a2.14,2.14,0,0,1-2.13-2.14h0a2.13,2.13,0,0,1,2.13-2.13h20.07a2.13,2.13,0,0,1,2.14,2.13h0A2.15,2.15,0,0,1,433.61,356.29Z" style="fill: rgb(69, 90, 100); transform-origin: 423.58px 354.155px;" id="ela7y2597bfo" class="animable"></path><path d="M433.61,360.39H413.54a2.14,2.14,0,0,1-2.13-2.14h0a2.13,2.13,0,0,1,2.13-2.14h20.07a2.14,2.14,0,0,1,2.14,2.14h0A2.15,2.15,0,0,1,433.61,360.39Z" style="fill: rgb(69, 90, 100); transform-origin: 423.58px 358.25px;" id="elodv8jowfedq" class="animable"></path><path d="M434.13,356.24c0,.1-4.71.19-10.51.19s-10.51-.09-10.51-.19,4.71-.2,10.51-.2S434.13,356.12,434.13,356.24Z" style="fill: rgb(38, 50, 56); transform-origin: 423.62px 356.235px;" id="el8vtc1xanofr" class="animable"></path><path d="M434.06,352c0,.11-4.79.19-10.68.19s-10.69-.08-10.69-.19,4.79-.2,10.69-.2S434.06,351.89,434.06,352Z" style="fill: rgb(38, 50, 56); transform-origin: 423.375px 351.995px;" id="elta73lo49008" class="animable"></path><path d="M415.15,356.23s-.29-.06-.61-.36a3.1,3.1,0,0,1-.86-1.5,2.9,2.9,0,0,1,.09-1.7c.15-.42.33-.62.37-.6a5.88,5.88,0,0,0-.07,2.21A6.12,6.12,0,0,0,415.15,356.23Z" style="fill: rgb(38, 50, 56); transform-origin: 414.372px 354.149px;" id="elkz95o79k35" class="animable"></path><path d="M417.23,356.11s-.29,0-.61-.32a2.79,2.79,0,0,1-.75-3.08c.16-.4.35-.6.4-.57a5.15,5.15,0,0,0-.12,2.14A5.31,5.31,0,0,0,417.23,356.11Z" style="fill: rgb(38, 50, 56); transform-origin: 416.458px 354.124px;" id="el5nyb0byuuux" class="animable"></path><path d="M419.77,356.11s-.28,0-.61-.32a2.81,2.81,0,0,1-.75-3.08c.17-.4.36-.6.39-.57a3.67,3.67,0,0,0,1,4Z" style="fill: rgb(38, 50, 56); transform-origin: 419.015px 354.139px;" id="elpt5g6bff8g" class="animable"></path><path d="M422.32,356.11s-.29,0-.61-.32a2.79,2.79,0,0,1-.75-3.08c.16-.4.35-.6.39-.57a5.51,5.51,0,0,0-.12,2.14A5.1,5.1,0,0,0,422.32,356.11Z" style="fill: rgb(38, 50, 56); transform-origin: 421.548px 354.124px;" id="elsow39spwbo" class="animable"></path><path d="M424.86,356.11s-.28,0-.6-.32a2.79,2.79,0,0,1-.76-3.08c.16-.4.36-.6.4-.57a5.15,5.15,0,0,0-.12,2.14A5.22,5.22,0,0,0,424.86,356.11Z" style="fill: rgb(38, 50, 56); transform-origin: 424.089px 354.124px;" id="elws4jxsu7i5" class="animable"></path><path d="M427.4,356.11s-.28,0-.6-.32a2.87,2.87,0,0,1-.86-1.42,2.77,2.77,0,0,1,.11-1.66c.16-.4.35-.6.39-.57a3.68,3.68,0,0,0,1,4Z" style="fill: rgb(38, 50, 56); transform-origin: 426.651px 354.138px;" id="elnote3h1s5fb" class="animable"></path><path d="M430,356.11s-.28,0-.6-.32a2.72,2.72,0,0,1-.75-3.08c.15-.4.35-.6.39-.57a5.15,5.15,0,0,0-.12,2.14A5.31,5.31,0,0,0,430,356.11Z" style="fill: rgb(38, 50, 56); transform-origin: 429.226px 354.124px;" id="el4wjry0ttv8o" class="animable"></path><path d="M432.49,356.11s-.28,0-.61-.32a2.78,2.78,0,0,1-.85-1.42,2.69,2.69,0,0,1,.11-1.66c.16-.4.35-.6.39-.57a3.68,3.68,0,0,0,1,4Z" style="fill: rgb(38, 50, 56); transform-origin: 431.739px 354.138px;" id="elb4q5i9ukvh" class="animable"></path><path d="M435,356.11s-.28,0-.61-.32a2.87,2.87,0,0,1-.86-1.42,2.76,2.76,0,0,1,.12-1.66c.15-.4.34-.6.39-.57a5.15,5.15,0,0,0-.12,2.14A5.31,5.31,0,0,0,435,356.11Z" style="fill: rgb(38, 50, 56); transform-origin: 434.227px 354.124px;" id="el4zho10fgejh" class="animable"></path><path d="M414.26,360.24a5.5,5.5,0,0,0-.49-4.05,1.14,1.14,0,0,1,.48.45,3.37,3.37,0,0,1,.55,1.5,3.55,3.55,0,0,1-.18,1.58C414.47,360.06,414.31,360.24,414.26,360.24Z" style="fill: rgb(38, 50, 56); transform-origin: 414.296px 358.215px;" id="elisqezezzo8e" class="animable"></path><path d="M416.59,360.24a9.53,9.53,0,0,0,.14-2.07,10,10,0,0,0-.64-2s.24.11.48.45a3.25,3.25,0,0,1,.55,1.5,3.4,3.4,0,0,1-.17,1.58C416.8,360.06,416.65,360.24,416.59,360.24Z" style="fill: rgb(38, 50, 56); transform-origin: 416.619px 358.205px;" id="el7ciirgyq44r" class="animable"></path><path d="M418.9,360.24a9.53,9.53,0,0,0,.14-2.07,9.92,9.92,0,0,0-.63-2,1.37,1.37,0,0,1,.48.45,3.37,3.37,0,0,1,.55,1.5,3.55,3.55,0,0,1-.18,1.58C419.13,360.06,419,360.24,418.9,360.24Z" style="fill: rgb(38, 50, 56); transform-origin: 418.936px 358.205px;" id="el364xkfxxd1" class="animable"></path><path d="M421.24,360.24a9.53,9.53,0,0,0,.15-2.07,10.64,10.64,0,0,0-.64-2,1.37,1.37,0,0,1,.48.45,3.42,3.42,0,0,1,.37,3.06C421.45,360.06,421.29,360.24,421.24,360.24Z" style="fill: rgb(38, 50, 56); transform-origin: 421.277px 358.205px;" id="elohx68mb8wdb" class="animable"></path><path d="M423.57,360.24a9.53,9.53,0,0,0,.14-2.07,10.61,10.61,0,0,0-.63-2,1.31,1.31,0,0,1,.47.45,3.27,3.27,0,0,1,.56,1.5,3.53,3.53,0,0,1-.18,1.58C423.78,360.06,423.62,360.24,423.57,360.24Z" style="fill: rgb(38, 50, 56); transform-origin: 423.606px 358.205px;" id="elu481xdd1ya" class="animable"></path><path d="M425.9,360.24a9.53,9.53,0,0,0,.14-2.07,10,10,0,0,0-.64-2,1.14,1.14,0,0,1,.48.45,3.36,3.36,0,0,1,.37,3.06C426.11,360.06,425.94,360.24,425.9,360.24Z" style="fill: rgb(38, 50, 56); transform-origin: 425.93px 358.205px;" id="elkyb3kubi5h9" class="animable"></path><path d="M428.23,360.24a10.2,10.2,0,0,0,.14-2.07,9.37,9.37,0,0,0-.65-2s.25.11.48.45a3.4,3.4,0,0,1,.38,3.06A1.12,1.12,0,0,1,428.23,360.24Z" style="fill: rgb(38, 50, 56); transform-origin: 428.251px 358.205px;" id="elzii96frjwoe" class="animable"></path><path d="M430.55,360.24a10.2,10.2,0,0,0,.15-2.07,10,10,0,0,0-.65-2,1.28,1.28,0,0,1,.48.45,3.4,3.4,0,0,1,.38,3.06C430.76,360.06,430.59,360.24,430.55,360.24Z" style="fill: rgb(38, 50, 56); transform-origin: 430.581px 358.205px;" id="el0q4u34ec2zvr" class="animable"></path><path d="M432.87,360.24a5.35,5.35,0,0,0-.49-4.05s.25.11.48.45a3.5,3.5,0,0,1,.38,3.08C433.09,360.06,432.92,360.24,432.87,360.24Z" style="fill: rgb(38, 50, 56); transform-origin: 432.908px 358.215px;" id="elsczf8liiuvf" class="animable"></path><path d="M438.8,343.82s-6.86.07-15.32.07-15.31,0-15.31-.07,6.85-.06,15.31-.06S438.8,343.79,438.8,343.82Z" style="fill: rgb(38, 50, 56); transform-origin: 423.485px 343.825px;" id="el21iclp95f1c" class="animable"></path><path d="M468.48,370.07c0,.14-99.17.26-221.47.26s-221.49-.12-221.49-.26,99.14-.27,221.49-.27S468.48,369.92,468.48,370.07Z" style="fill: rgb(38, 50, 56); transform-origin: 247px 370.065px;" id="el3gcabt0ji42" class="animable"></path></g><g id="freepik--Sun--inject-116" class="animable" style="transform-origin: 130.09px 80.38px;"><g id="el2y75mwddmh3"><circle cx="130.09" cy="80.38" r="29.11" style="fill: #F92303; transform-origin: 130.09px 80.38px; transform: rotate(-22.93deg);" class="animable" id="elhxxls296arj"></circle></g><g id="el3r8dhojo9f"><g style="opacity: 0.9; transform-origin: 130.09px 80.38px;" class="animable" id="elkc0k6j9is98"><g id="el83pm8vsogp"><circle cx="130.09" cy="80.38" r="29.11" style="fill: rgb(255, 255, 255); transform-origin: 130.09px 80.38px; transform: rotate(-22.93deg);" class="animable" id="elo5sygz57o6m"></circle></g></g></g><g id="elbmjo38dc91m"><circle cx="130.09" cy="80.38" r="25.96" style="fill: #F92303; transform-origin: 130.09px 80.38px; transform: rotate(-80.82deg);" class="animable" id="elr1qyjw32sui"></circle></g><g id="elso7lc5lekjl"><g style="opacity: 0.6; transform-origin: 130.09px 80.38px;" class="animable" id="elahni92gzhm9"><g id="elzq3rte9z7tm"><circle cx="130.09" cy="80.38" r="25.96" style="fill: rgb(255, 255, 255); transform-origin: 130.09px 80.38px; transform: rotate(-80.82deg);" class="animable" id="el16massz1o6y"></circle></g></g></g><g id="el95s8qvnvjv"><circle cx="130.09" cy="80.38" r="21.61" style="fill: #F92303; transform-origin: 130.09px 80.38px; transform: rotate(-83.75deg);" class="animable" id="eliqut7msqfwd"></circle></g><g id="elgfoy94yo26h"><g style="opacity: 0.3; transform-origin: 130.09px 80.38px;" class="animable" id="el5ri8uj926"><g id="elrrwe63wj4x"><circle cx="130.09" cy="80.38" r="21.61" style="fill: rgb(255, 255, 255); transform-origin: 130.09px 80.38px; transform: rotate(-83.75deg);" class="animable" id="eluwjxxzren0c"></circle></g></g></g><g id="elbsmf9dc3jum"><circle cx="130.09" cy="80.38" r="17.3" style="fill: #F92303; transform-origin: 130.09px 80.38px; transform: rotate(-80.81deg);" class="animable" id="elnjm4nc93xw"></circle></g></g><g id="freepik--Character--inject-116" class="animable" style="transform-origin: 247.004px 261.899px;"><path d="M280.67,209.37s15.28,32,14.5,51.53-12.07,87.73-12.07,87.73L263.55,454H238.9s0-67.39,2.34-85.84,5.08-28.61,5.86-42.16-1.77-46.59-1-45.46-59,175.89-59,175.89L162.75,452s9.33-59.83,11.28-70.5,9.77-43.43,15.63-60,7.25-65.95,15.36-83.72,11.09-24.18,11.09-24.18Z" style="fill: rgb(38, 50, 56); transform-origin: 228.974px 332.9px;" id="el4ktva1s4osn" class="animable"></path><path d="M263.55,432.08l-1.38,26.19s25,10.26,25.18,15.13l-48.62-1,.53-40.9Z" style="fill: rgb(38, 50, 56); transform-origin: 263.04px 452.45px;" id="els58mtsrxwib" class="animable"></path><path d="M238.73,472.44l.05-4,46.7,2.3s2.15,1,1.87,2.62Z" style="fill: rgb(69, 90, 100); transform-origin: 263.053px 470.9px;" id="elt6srtalj76k" class="animable"></path><path d="M263,458c0,.25-1.2.34-2.39,1.11s-1.82,1.81-2,1.71.17-1.53,1.61-2.44S263,457.8,263,458Z" style="fill: rgb(255, 255, 255); transform-origin: 260.783px 459.3px;" id="el4e01rveec3k" class="animable"></path><path d="M268,460.34c.05.24-1,.64-1.81,1.68s-1.08,2.14-1.32,2.12-.36-1.42.69-2.69S268,460.1,268,460.34Z" style="fill: rgb(255, 255, 255); transform-origin: 266.354px 462.186px;" id="el5w2ylne71en" class="animable"></path><path d="M270.81,466.78c-.22.05-.53-1.2.11-2.54s1.75-1.87,1.85-1.66-.6.92-1.11,2S271.05,466.76,270.81,466.78Z" style="fill: rgb(255, 255, 255); transform-origin: 271.659px 464.658px;" id="el26v24cd54i9" class="animable"></path><path d="M171.24,428.89l-8.17,30.57-13.13,22.22a3.33,3.33,0,0,0,1.2,4.58h0a3,3,0,0,0,2.84,0c5.72-3,26.71-14.29,27.19-16.56.56-2.63,10.67-31.64,10.67-31.64Z" style="fill: rgb(38, 50, 56); transform-origin: 170.658px 457.754px;" id="el79wsgjksh8h" class="animable"></path><path d="M151.14,486.26l30.63-18.58-.38,1.28a4.82,4.82,0,0,1-1.94,2.7c-2.5,1.68-9.51,6.16-25.38,14.66a3,3,0,0,1-2.93-.06Z" style="fill: rgb(69, 90, 100); transform-origin: 166.455px 477.176px;" id="elze3v5km31c9" class="animable"></path><path d="M161.63,475.11c-.19,0-.38-1.76-1.86-3.17s-3.16-1.53-3.14-1.73.43-.2,1.14-.09a4.77,4.77,0,0,1,2.46,1.31,5.15,5.15,0,0,1,1.41,2.49C161.79,474.65,161.71,475.11,161.63,475.11Z" style="fill: rgb(255, 255, 255); transform-origin: 159.177px 472.578px;" id="el32on5wkhzpi" class="animable"></path><path d="M158.38,478.52c-.18.09-.82-1.2-2.19-2.13s-2.73-1.08-2.72-1.28,1.54-.38,3.09.7S158.55,478.49,158.38,478.52Z" style="fill: rgb(255, 255, 255); transform-origin: 155.942px 476.742px;" id="elwfc24t6rc1" class="animable"></path><path d="M167,471.13c-.18.1-1.16-1.88-3.16-3.52s-4.06-2.22-4-2.42,2.28.09,4.41,1.87S167.16,471.09,167,471.13Z" style="fill: rgb(255, 255, 255); transform-origin: 163.429px 468.135px;" id="ele1l0jenej0p" class="animable"></path><path d="M170.22,462.05c-.13.16-1.53-1.05-3.59-1.79s-3.87-.75-3.88-1,1.89-.53,4.1.3S170.35,461.94,170.22,462.05Z" style="fill: rgb(255, 255, 255); transform-origin: 166.489px 460.535px;" id="el23r9ugofe4d" class="animable"></path><path d="M204.22,158.74a97.69,97.69,0,0,0,6-23.42c1.11-8.76,1-17.75,3.7-26.17s8.87-16.47,17.55-18.06l7.45,2.73a416,416,0,0,1-6.86,79,4.74,4.74,0,0,1-1.15,2.74c-.95.88-2.41.83-3.69.7a74.82,74.82,0,0,1-18.83-4.42c-1.84-.69-3.77-1.54-4.87-3.18C201.57,165.78,203,162,204.22,158.74Z" style="fill: rgb(38, 50, 56); transform-origin: 220.748px 133.711px;" id="elqqkozk968ff" class="animable"></path><path d="M208.31,120.67l-2.4,26.17c-.28.4,4.64,32,6.71,42.9.24,1.27,3.49,23.88,3.49,23.88,22.06,5.14,44.78,2.91,64.56-4.25l7.47-43.48,9.23-32.1-25.66-13.55-7.89-8.38-26-.88-5.7,7.84Z" style="fill: rgb(224, 224, 224); transform-origin: 251.634px 163.701px;" id="elqwhyhsste3" class="animable"></path><path d="M246.78,131.9l3,5.92s-3.88,7.21-4.44,14.54-2.4,69.52-2.4,69.52L253,231.25l8.54-8.7s.18-53.32,0-60.42S255,137.82,255,137.82l2.56-5.07-4.79-5.18h-2.1Z" style="fill: #F92303; transform-origin: 252.28px 179.41px;" id="elfhuv2dg4utb" class="animable"></path><polygon points="272.55 125.7 276.28 117.98 295.81 125.7 292.85 133.34 272.55 125.7" style="fill: rgb(38, 50, 56); transform-origin: 284.18px 125.66px;" id="el74qwwdvugha" class="animable"></polygon><polygon points="290.81 123.73 287.56 131.35 290.85 132.58 293.87 124.92 290.81 123.73" style="fill: #F92303; transform-origin: 290.715px 128.155px;" id="elwk7t7itulv" class="animable"></polygon><polygon points="286.3 121.94 283.04 129.66 286.33 130.9 289.5 123.21 286.3 121.94" style="fill: #F92303; transform-origin: 286.27px 126.42px;" id="elhacd18jthf7" class="animable"></polygon><path d="M272.55,125.7l.43.13,1.17.41,4.28,1.54c3.63,1.31,8.69,3.15,14.51,5.33l-.32.14c.91-2.35,1.88-4.88,2.89-7.5l.05-.14.15.34-19.5-7.8.24-.09-2.8,5.56c-.32.62-.59,1.13-.79,1.53a3.61,3.61,0,0,1-.31.55,3.06,3.06,0,0,1,.21-.51l.69-1.54,2.67-5.75.07-.15.16.06,19.55,7.65.24.1-.09.24-.06.14-2.9,7.49-.09.23-.23-.09c-5.92-2.24-11-4.21-14.6-5.61L274,126.31l-1.09-.44A1.33,1.33,0,0,1,272.55,125.7Z" style="fill: rgb(69, 90, 100); transform-origin: 284.345px 125.705px;" id="elg5gawvtplrq" class="animable"></path><polygon points="232.11 125.4 230.01 117.09 209.33 120.72 210.69 128.8 232.11 125.4" style="fill: rgb(38, 50, 56); transform-origin: 220.72px 122.945px;" id="elxvss7k579dm" class="animable"></polygon><polygon points="214.62 119.79 216.28 127.91 212.81 128.46 211.39 120.34 214.62 119.79" style="fill: #F92303; transform-origin: 213.835px 124.125px;" id="ely9ncy4zgjhj" class="animable"></polygon><polygon points="219.4 118.95 221.04 127.17 217.57 127.72 216.01 119.55 219.4 118.95" style="fill: #F92303; transform-origin: 218.525px 123.335px;" id="elkm9433yj6dp" class="animable"></polygon><path d="M232.11,125.4a1.59,1.59,0,0,1-.38.09l-1.16.22-4.42.77c-3.79.65-9.18,1.56-15.43,2.56l-.24,0,0-.24c-.42-2.49-.87-5.16-1.34-7.92l0-.15,0-.26.26,0L230,116.91l.17,0,0,.16c.6,2.56,1.09,4.65,1.45,6.17.15.67.27,1.21.37,1.64a2.49,2.49,0,0,1,.1.55s-.08-.22-.19-.6l-.47-1.66c-.4-1.48-.94-3.52-1.62-6l.21.14L209.38,121l.21-.3,0,.15c.46,2.77.91,5.44,1.32,7.93l-.28-.21c6.14-1,11.46-1.75,15.28-2.3l4.51-.64,1.22-.17A3.53,3.53,0,0,1,232.11,125.4Z" style="fill: rgb(69, 90, 100); transform-origin: 220.625px 122.975px;" id="ellq8n0oogj68" class="animable"></path><path d="M271.71,120.64a1.34,1.34,0,0,1-.2.3l-.62.82c-.6.76-1.4,1.79-2.41,3.06l-8.56,10.65-.17.21-.19-.2c-2.49-2.74-5.23-5.74-8.12-8.89h.4l-.75.87-7.59,8.93-.2.24-.18-.26c-6.81-9.81-11.47-17-11-17.15-.18,0,1,1.84,3,4.81s4.93,7.18,8.38,12.06h-.39l7.57-8.95.74-.88.19-.22.2.22,8.08,8.92h-.36l8.71-10.53,2.51-3,.68-.78C271.61,120.71,271.7,120.63,271.71,120.64Z" style="fill: rgb(38, 50, 56); transform-origin: 251.899px 127.925px;" id="elpc7ecdftb" class="animable"></path><path d="M227.6,59.12c5.84-7.83,14-12.55,23.7-13.14,5.51-.33,7.84.71,11.85,1.61a17.41,17.41,0,0,1,10.2,6.11c3,3.87,5.54,8.23,6.28,13a81,81,0,0,1,1.38,15A27.4,27.4,0,0,1,277,96l-12.62,2.77c-7,.55-14.12,1.09-21-.21s-13.72-4.69-17.65-10.52C220.2,80,221.75,67,227.6,59.12Z" style="fill: rgb(38, 50, 56); transform-origin: 251.656px 72.6408px;" id="el9ej04c65k5f" class="animable"></path><path d="M237.85,111l-3.22-47.7a4.72,4.72,0,0,1,4.27-4.75l16.66-7.48,4.45.32c10-.41,17.32,10.28,17.74,18.34.47,9,.69,19.93-.44,26.6-2.28,13.41-13.57,15-13.57,15l.23,3.24-12.33,11.09h0Z" style="fill: rgb(174, 116, 97); transform-origin: 256.381px 88.365px;" id="ele7bxcckahk" class="animable"></path><path d="M257.24,94.08a2.81,2.81,0,0,1,.9-1.79,2.91,2.91,0,0,1,3.5-.36,3.89,3.89,0,0,1,1.63,3.57h0a3.55,3.55,0,0,1-2.46,1.58,3.59,3.59,0,0,1-.47,0,3.13,3.13,0,0,1-2.17-.75A2.79,2.79,0,0,1,257.24,94.08Z" style="fill: rgb(111, 68, 57); transform-origin: 260.262px 94.2968px;" id="elcz2c0nytzvr" class="animable"></path><path d="M272.31,80.79a1.73,1.73,0,0,1-1.68,1.73,1.65,1.65,0,0,1-1.76-1.58,1.72,1.72,0,0,1,1.68-1.72A1.64,1.64,0,0,1,272.31,80.79Z" style="fill: rgb(38, 50, 56); transform-origin: 270.59px 80.8696px;" id="el462063njr12" class="animable"></path><path d="M274.91,74.33c-.21.22-1.51-.76-3.36-.77s-3.23.9-3.43.67.13-.51.73-.93a4.69,4.69,0,0,1,2.74-.82,4.54,4.54,0,0,1,2.67.9C274.83,73.82,275,74.23,274.91,74.33Z" style="fill: rgb(38, 50, 56); transform-origin: 271.497px 73.4207px;" id="elvcv07nw4dqg" class="animable"></path><path d="M263.66,89.36a12.88,12.88,0,0,1,3-.51c.48,0,.93-.13,1-.45a2.49,2.49,0,0,0-.3-1.41c-.44-1.15-.89-2.36-1.36-3.62-1.89-5.15-3.26-9.39-3-9.47s1.91,4,3.8,9.2c.46,1.27.89,2.48,1.3,3.64a2.72,2.72,0,0,1,.23,1.87,1.18,1.18,0,0,1-.79.68,3.06,3.06,0,0,1-.8.1A11.9,11.9,0,0,1,263.66,89.36Z" style="fill: rgb(38, 50, 56); transform-origin: 265.685px 81.6872px;" id="ela408zdxqw6u" class="animable"></path><path d="M263.76,111.31a34.17,34.17,0,0,1-17.95-5s4.7,9.36,18.16,8.25Z" style="fill: rgb(111, 68, 57); transform-origin: 254.89px 110.481px;" id="elyhi1me9yvhc" class="animable"></path><path d="M258.19,90.59c.31,0,.29,2,2,3.44s3.85,1.25,3.86,1.53c0,.13-.48.39-1.39.4a4.9,4.9,0,0,1-3.22-1.16,4.35,4.35,0,0,1-1.55-2.89C257.83,91.07,258.06,90.57,258.19,90.59Z" style="fill: rgb(38, 50, 56); transform-origin: 260.965px 93.2749px;" id="elt028fku33gs" class="animable"></path><path d="M274,67.88c-.32.45-1.74.13-3.4.25s-3,.54-3.4.13c-.16-.2,0-.64.61-1.09a5.09,5.09,0,0,1,2.7-.92,5,5,0,0,1,2.77.61C273.9,67.25,274.13,67.66,274,67.88Z" style="fill: rgb(38, 50, 56); transform-origin: 270.588px 67.3366px;" id="elulsj3jlyhc" class="animable"></path><path d="M252.32,80.82a1.73,1.73,0,0,0,1.71,1.7,1.64,1.64,0,0,0,1.73-1.6,1.72,1.72,0,0,0-1.7-1.7A1.65,1.65,0,0,0,252.32,80.82Z" style="fill: rgb(38, 50, 56); transform-origin: 254.04px 80.87px;" id="ella30wo00ep" class="animable"></path><path d="M249.85,74.72c.22.22,1.49-.78,3.35-.83s3.24.85,3.43.62-.13-.5-.74-.92a4.71,4.71,0,0,0-2.75-.77,4.58,4.58,0,0,0-2.66.94C249.92,74.21,249.74,74.62,249.85,74.72Z" style="fill: rgb(38, 50, 56); transform-origin: 253.252px 73.7844px;" id="elcnleknb9x26" class="animable"></path><path d="M250.7,68.74c.37.42,1.79-.06,3.51-.13s3.18.2,3.51-.25c.14-.22-.1-.63-.75-1a5.56,5.56,0,0,0-5.66.31C250.72,68.1,250.53,68.54,250.7,68.74Z" style="fill: rgb(38, 50, 56); transform-origin: 254.199px 67.8208px;" id="ela5z428b1vhf" class="animable"></path><path d="M237.92,85.71c0-1-1.12-3.38-2.11-3.54-2.63-.44-7.39-.28-7.51,6.42-.16,9.16,8.86,7.29,9.1,7.17C240.21,94.31,237.89,89.16,237.92,85.71Z" style="fill: rgb(174, 116, 97); transform-origin: 233.545px 89.0102px;" id="ela4ugrxyeggc" class="animable"></path><path d="M234.93,92.37s-.17.11-.44.23a1.6,1.6,0,0,1-1.19,0c-1-.37-1.75-1.92-1.77-3.57a5.2,5.2,0,0,1,.49-2.28,1.8,1.8,0,0,1,1.22-1.2.81.81,0,0,1,.94.45c.11.26,0,.44.1.46s.2-.15.13-.53a1,1,0,0,0-.35-.58,1.17,1.17,0,0,0-.88-.25,2.23,2.23,0,0,0-1.69,1.39A5.38,5.38,0,0,0,230.9,89c0,1.85.94,3.59,2.25,4a1.72,1.72,0,0,0,1.47-.22C234.91,92.59,235,92.39,234.93,92.37Z" style="fill: rgb(111, 68, 57); transform-origin: 232.926px 89.0834px;" id="eluafl323eca" class="animable"></path><path d="M235.44,82.21l2.43,2.31c9.6-10,28.13-34.93,27.1-33.45a29.21,29.21,0,0,0-14.39-.92c-7.4,1.6-21.37,6-20.77,14.73S235.44,82.21,235.44,82.21Z" style="fill: rgb(38, 50, 56); transform-origin: 247.401px 67.0843px;" id="elceu9ijvok3s" class="animable"></path><path d="M282.4,157.67c1.43,1.07,36,34.93,36,34.93s-13.28,13.62-14.26,18.53a4.32,4.32,0,0,0,0,2.49l-8.95,7.69L307,233.94l7.84-7.84a41.83,41.83,0,0,0,23.53-20c8.2-15.68,7.48-16.75,2.14-25.66s-39.92-45-43.13-46.69S282.4,157.67,282.4,157.67Z" style="fill: rgb(224, 224, 224); transform-origin: 313.466px 183.805px;" id="elsg3n0fef63i" class="animable"></path><path d="M262.32,216.66s9.72-2.63,12.35-2,6.46,1.31,8.22,2.89,8.33,6.57,8.33,6.57l4.27-2.57,9.23,10.14s-5.49,5-8,5.3-13.85-2.59-13.85-2.59-11.64,3-13.21,2.61-2-1.26-.79-2.61,10.64-3.32,10.9-4.11-1.84-1.71-2.5-1.71-12.34,2.11-14.31.92-1.45-2.76-1.45-2.76-1.31-.26-.92-2.49.66-.66,5.26-2.37a59.15,59.15,0,0,1,11-2.49s-7.09-.53-7.49-.53S262.32,221.54,262.32,216.66Z" style="fill: rgb(174, 116, 97); transform-origin: 282.619px 225.804px;" id="eljsiuc8919rs" class="animable"></path><path d="M292.44,148a94.94,94.94,0,0,1-2.13,9.81,95.25,95.25,0,0,1-2.63,9.68,95.72,95.72,0,0,1,2.13-9.8A96,96,0,0,1,292.44,148Z" style="fill: rgb(38, 50, 56); transform-origin: 290.06px 157.745px;" id="elyc0mntdsbui" class="animable"></path><path d="M208.45,78.76l-5.91,3.76a126.41,126.41,0,0,0-42.67,25c-4.82,4.34-6,16.37-2.06,20.26s50.5,30.57,50.5,30.57V120.67l-4.87-.88-18.15-2.7,31.38-25.84Z" style="fill: rgb(224, 224, 224); transform-origin: 186.057px 118.555px;" id="eldshxkdptbjf" class="animable"></path><path d="M278.13,59.4c.36.72,19.28,10.26-6.61,11.72-27.16,1.53-45.79-6.38-45.79-6.38s18.08-3.66,27.26-4.92S278.13,59.4,278.13,59.4Z" style="fill: rgb(38, 50, 56); transform-origin: 255.433px 65.2211px;" id="eltwm5rrz63u7" class="animable"></path><path d="M278.13,53.07s0-.28.15-2.81,3.52-2.93,3.4-5.3c-.18-3.29-5.32-10.47-34.5-6.83-28.46,3.55-31.42,16.94-28.64,19.09s5-.27,6.88,3.19l1.91,3.47,51.18-4.41Z" style="fill: rgb(224, 224, 224); transform-origin: 249.697px 50.5029px;" id="elm0wf8kv980n" class="animable"></path><path d="M278.26,52.58a130.63,130.63,0,0,0-25.34,1.22c-7.19,1-19.59,2.58-27.33,6.52L226.5,65l52-5.54Z" style="fill: rgb(69, 90, 100); transform-origin: 252.045px 58.7111px;" id="el5r0xah3af4g" class="animable"></path><path d="M234,61.75s5.7-2.29,7-2.63,12.37,1.74,12.37,1.74-.19,2.61-2.35,2.6l3.35,2.28s-.5,2.11-3.7,1.75-8.08-1.26-8.08-1.26l.37,1.33-.14,2.14.53-.3,4.87.83-4.82,3.94a9.6,9.6,0,0,0-2.52,1.89c-.87,1.06-3,2.6-3.84,2.6a19.1,19.1,0,0,0-3.69.83s-4.33,4.62-7.29,5.32a13.52,13.52,0,0,1-4.72.44l-5.3,5L209,79.7s7.63-4.72,7.71-5,10.5-10.84,12-12.28S234,61.75,234,61.75Z" style="fill: rgb(174, 116, 97); transform-origin: 231.685px 74.6662px;" id="elvbx5spuvvz" class="animable"></path><path d="M272.41,50.79c.2,4.07-2.52,7.5-6.06,7.67s-6.57-3-6.76-7.05,2.52-7.49,6.06-7.66S272.22,46.73,272.41,50.79Z" style="fill: rgb(38, 50, 56); transform-origin: 266px 51.105px;" id="el08im8r4sh1vm" class="animable"></path><path d="M271.2,40.09s-.77-.08-2.14-.23a57.14,57.14,0,0,0-5.85-.36A101.58,101.58,0,0,0,244,41.29a50.76,50.76,0,0,0-10.2,2.88,44.58,44.58,0,0,0-7.61,4.12,20.68,20.68,0,0,0-4.35,3.86c-.86,1.08-1.19,1.78-1.23,1.75a2,2,0,0,1,.22-.51,9.86,9.86,0,0,1,.85-1.37,19.22,19.22,0,0,1,4.3-4,42.61,42.61,0,0,1,7.63-4.26,49.27,49.27,0,0,1,10.29-2.95,93.49,93.49,0,0,1,19.33-1.65,47.12,47.12,0,0,1,5.86.53c.69.09,1.22.21,1.58.29A3.49,3.49,0,0,1,271.2,40.09Z" style="fill: rgb(38, 50, 56); transform-origin: 245.905px 46.5222px;" id="elppkkezpzl7" class="animable"></path><g id="freepik--S81wsY.tif--inject-116" class="animable" style="transform-origin: 266.117px 51.0139px;"><path d="M266.67,54.69a3.39,3.39,0,0,0,2.61-1.21l-.36-.25a4.38,4.38,0,0,0,1-1.95,3.86,3.86,0,0,1,.16,2.76l-.32-.23s0,0,0,0a2.39,2.39,0,0,1-1.41,1.36l-1.49.58a1.45,1.45,0,0,0-.75.54,2.29,2.29,0,0,0-1.1-.69l-.9-.33a2.55,2.55,0,0,1-1.67-1.47l-.29.19a3.92,3.92,0,0,1,.16-2.76,4.43,4.43,0,0,0,1,1.95l-.39.28a3.45,3.45,0,0,0,2.6,1.18,1.62,1.62,0,0,0,0-.18l.12-3.35.06-1.43c0-.11,0-.16-.14-.17l-1.41-.16a.22.22,0,0,0-.15.06.48.48,0,0,1-.67-.06.46.46,0,1,1,.73-.57.3.3,0,0,0,.15.07l1.45-.17.06,0q0-.35,0-.69s-.07-.1-.12-.12a1.12,1.12,0,1,1,1.53-1.4,1.11,1.11,0,0,1-.6,1.4.21.21,0,0,0-.15.26,3.39,3.39,0,0,1,0,.45c0,.09,0,.12.12.13l1.41.15c.05,0,.12,0,.16-.09a.48.48,0,0,1,.53-.13.46.46,0,0,1,.29.45.45.45,0,0,1-.32.43.49.49,0,0,1-.45-.09.25.25,0,0,0-.16-.06l-1.42.16c-.1,0-.14,0-.13.14.05,1.09.09,2.19.13,3.29l.06,1.58A1,1,0,0,0,266.67,54.69Zm-.56-7.25a.57.57,0,0,0,.55-.55.56.56,0,1,0-1.11,0A.59.59,0,0,0,266.11,47.44Z" style="fill: #F92303; transform-origin: 266.117px 51.0139px;" id="el3t0celi6eev" class="animable"></path></g><path d="M202.71,136.35c.14,0,1.25,5.32,2.46,11.94s2.09,12,2,12-1.24-5.32-2.46-11.94S202.57,136.38,202.71,136.35Z" style="fill: rgb(38, 50, 56); transform-origin: 204.936px 148.32px;" id="elpdv1frr9mie" class="animable"></path><path d="M221.93,76.81a6.72,6.72,0,0,0,1,.53,4.59,4.59,0,0,0,3.07,0,7.7,7.7,0,0,0,3.64-3c1.1-1.5,2-3.46,3.45-5.27l.14-.17.19.14a3.5,3.5,0,0,0,2.52.63l.36,0-.07.36-.35,1.62-.07.32-.29-.14a2.37,2.37,0,0,0-3,.86,2.42,2.42,0,0,0-.23,2.07l-.24-.17,4.39.06c.69,0,1.47.13,1.87-.19s.45-1,.65-1.68c.41-1.28,1.25-2.28,1.22-3.34s-1.06-1.69-1.69-2.38l-3.26-3.18a11.18,11.18,0,0,1-1.14-1.2,10.21,10.21,0,0,1,1.27,1.06l3.37,3.06c.35.33.73.66,1.11,1a2.38,2.38,0,0,1,.76,1.57c0,1.3-.86,2.32-1.2,3.49-.09.29-.13.61-.22,1a1.75,1.75,0,0,1-.57,1,1.83,1.83,0,0,1-1.12.32h-1.06l-4.38,0h-.18l-.06-.16a2.93,2.93,0,0,1,.26-2.52,2.89,2.89,0,0,1,3.64-1l-.37.17c.13-.56.25-1.11.36-1.62l.29.31a4,4,0,0,1-2.89-.75l.33,0C232,71.07,231.13,73,230,74.55a7.83,7.83,0,0,1-3.88,3.07,4.62,4.62,0,0,1-3.22-.13A2.31,2.31,0,0,1,221.93,76.81Z" style="fill: rgb(111, 68, 57); transform-origin: 231.265px 70.2643px;" id="elk9qvqonyfsf" class="animable"></path><path d="M237,62.17a2.84,2.84,0,0,1,1,.44,17.84,17.84,0,0,1,2.4,1.69,19.52,19.52,0,0,1,1.53,1.35,4,4,0,0,1,1.22,2.08,5.35,5.35,0,0,1-.49,2.6,14.18,14.18,0,0,0-.48,2.65,7.39,7.39,0,0,1-.77,2.72,5.56,5.56,0,0,1-1.88,1.86,17.74,17.74,0,0,1-2.07,1.12,2.16,2.16,0,0,1-2.12,0,2,2,0,0,1-.76-1.59,6.19,6.19,0,0,1,.21-1.27,3.19,3.19,0,0,1,.37-1,6.86,6.86,0,0,1-.17,1.06,6.2,6.2,0,0,0-.11,1.22,1.69,1.69,0,0,0,.67,1.29,1.77,1.77,0,0,0,1.73-.09,17.54,17.54,0,0,0,2-1.12,5.06,5.06,0,0,0,1.7-1.71,6.87,6.87,0,0,0,.7-2.54,14.87,14.87,0,0,1,.51-2.74,5,5,0,0,0,.51-2.36A3.7,3.7,0,0,0,241.63,66a17.88,17.88,0,0,0-1.46-1.36,23.37,23.37,0,0,0-2.27-1.81A7.58,7.58,0,0,1,237,62.17Z" style="fill: rgb(111, 68, 57); transform-origin: 238.87px 70.564px;" id="elwwlh4a11qce" class="animable"></path><path d="M236.11,61.78a7.71,7.71,0,0,1,2.25-.3,36.19,36.19,0,0,1,5.49.11,30.33,30.33,0,0,1,5.4,1,6.82,6.82,0,0,1,2.11.85,18.45,18.45,0,0,1-2.21-.49,44.69,44.69,0,0,0-5.35-.84c-2.11-.2-4-.26-5.43-.27A12.67,12.67,0,0,1,236.11,61.78Z" style="fill: rgb(111, 68, 57); transform-origin: 243.735px 62.4317px;" id="ely5pz0zp1zua" class="animable"></path></g><defs>     <filter id="active" height="200%">         <feMorphology in="SourceAlpha" result="DILATED" operator="dilate" radius="2"></feMorphology>                <feFlood flood-color="#32DFEC" flood-opacity="1" result="PINK"></feFlood>        <feComposite in="PINK" in2="DILATED" operator="in" result="OUTLINE"></feComposite>        <feMerge>            <feMergeNode in="OUTLINE"></feMergeNode>            <feMergeNode in="SourceGraphic"></feMergeNode>        </feMerge>    </filter>    <filter id="hover" height="200%">        <feMorphology in="SourceAlpha" result="DILATED" operator="dilate" radius="2"></feMorphology>                <feFlood flood-color="#ff0000" flood-opacity="0.5" result="PINK"></feFlood>        <feComposite in="PINK" in2="DILATED" operator="in" result="OUTLINE"></feComposite>        <feMerge>            <feMergeNode in="OUTLINE"></feMergeNode>            <feMergeNode in="SourceGraphic"></feMergeNode>        </feMerge>            <feColorMatrix type="matrix" values="0   0   0   0   0                0   1   0   0   0                0   0   0   0   0                0   0   0   1   0 "></feColorMatrix>    </filter></defs></svg>